  0
SECTION
  2
HEADER
  9
$ACADVER
  1
AC1015
  9
$ACADMAINTVER
 70
     6
  9
$DWGCODEPAGE
  3
ANSI_1252
  9
$INSBASE
 10
0.0
 20
0.0
 30
0.0
  9
$EXTMIN
 10
0.0
 20
0.0
 30
0.0
  9
$EXTMAX
 10
841.0
 20
594.0
 30
0.0
  9
$LIMMIN
 10
0.0
 20
0.0
  9
$LIMMAX
 10
841.0
 20
594.0
  9
$ORTHOMODE
 70
     0
  9
$REGENMODE
 70
     1
  9
$FILLMODE
 70
     1
  9
$QTEXTMODE
 70
     0
  9
$MIRRTEXT
 70
     1
  9
$LTSCALE
 40
1.0
  9
$ATTMODE
 70
     1
  9
$TEXTSIZE
 40
3.5
  9
$TRACEWID
 40
1.0
  9
$TEXTSTYLE
  7
Standard
  9
$CLAYER
  8
0
  9
$CELTYPE
  6
ByLayer
  9
$CECOLOR
 62
   256
  9
$CELTSCALE
 40
1.0
  9
$DISPSILH
 70
     0
  9
$DIMSCALE
 40
1.0
  9
$DIMASZ
 40
3.302
  9
$DIMEXO
 40
1.0
  9
$DIMDLI
 40
3.75
  9
$DIMRND
 40
0.0
  9
$DIMDLE
 40
0.0
  9
$DIMEXE
 40
1.0
  9
$DIMTP
 40
0.0
  9
$DIMTM
 40
0.0
  9
$DIMTXT
 40
3.5
  9
$DIMCEN
 40
2.5
  9
$DIMTSZ
 40
0.0
  9
$DIMTOL
 70
     0
  9
$DIMLIM
 70
     0
  9
$DIMTIH
 70
     1
  9
$DIMTOH
 70
     1
  9
$DIMSE1
 70
     0
  9
$DIMSE2
 70
     0
  9
$DIMTAD
 70
     1
  9
$DIMZIN
 70
     1
  9
$DIMBLK
  1

  9
$DIMASO
 70
     1
  9
$DIMSHO
 70
     1
  9
$DIMPOST
  1

  9
$DIMAPOST
  1

  9
$DIMALT
 70
     0
  9
$DIMALTD
 70
     3
  9
$DIMALTF
 40
0.0393700787
  9
$DIMLFAC
 40
1.0
  9
$DIMTOFL
 70
     1
  9
$DIMTVP
 40
0.0
  9
$DIMTIX
 70
     0
  9
$DIMSOXD
 70
     0
  9
$DIMSAH
 70
     0
  9
$DIMBLK1
  1

  9
$DIMBLK2
  1

  9
$DIMSTYLE
  2
ISO-25
  9
$DIMCLRD
 70
     0
  9
$DIMCLRE
 70
     0
  9
$DIMCLRT
 70
     0
  9
$DIMTFAC
 40
1.0
  9
$DIMGAP
 40
1.524
  9
$DIMJUST
 70
     0
  9
$DIMSD1
 70
     0
  9
$DIMSD2
 70
     0
  9
$DIMTOLJ
 70
     0
  9
$DIMTZIN
 70
     1
  9
$DIMALTZ
 70
     0
  9
$DIMALTTZ
 70
     0
  9
$DIMUPT
 70
     0
  9
$DIMDEC
 70
     2
  9
$DIMTDEC
 70
     2
  9
$DIMALTU
 70
     2
  9
$DIMALTTD
 70
     3
  9
$DIMTXSTY
  7
Standard
  9
$DIMAUNIT
 70
     0
  9
$DIMADEC
 70
     2
  9
$DIMALTRND
 40
0.0
  9
$DIMAZIN
 70
     0
  9
$DIMDSEP
 70
    44
  9
$DIMATFIT
 70
     3
  9
$DIMFRAC
 70
     0
  9
$DIMLDRBLK
  1

  9
$DIMLUNIT
 70
     2
  9
$DIMLWD
 70
    -2
  9
$DIMLWE
 70
    -2
  9
$DIMTMOVE
 70
     0
  9
$LUNITS
 70
     2
  9
$LUPREC
 70
     2
  9
$SKETCHINC
 40
1.0
  9
$FILLETRAD
 40
10.0
  9
$AUNITS
 70
     0
  9
$AUPREC
 70
     2
  9
$MENU
  1
.
  9
$ELEVATION
 40
0.0
  9
$PELEVATION
 40
0.0
  9
$THICKNESS
 40
0.0
  9
$LIMCHECK
 70
     0
  9
$CHAMFERA
 40
0.0
  9
$CHAMFERB
 40
0.0
  9
$CHAMFERC
 40
0.0
  9
$CHAMFERD
 40
0.0
  9
$SKPOLY
 70
     0
  9
$TDCREATE
 40
2461132.014114572
  9
$TDUCREATE
 40
2461131.930781238
  9
$TDUPDATE
 40
2461132.014116065
  9
$TDUUPDATE
 40
2461131.930782732
  9
$TDINDWG
 40
0.0000000116
  9
$TDUSRTIMER
 40
0.0000000116
  9
$USRTIMER
 70
     1
  9
$ANGBASE
 50
0.0
  9
$ANGDIR
 70
     0
  9
$PDMODE
 70
     0
  9
$PDSIZE
 40
-1.0
  9
$PLINEWID
 40
0.0
  9
$SPLFRAME
 70
     0
  9
$SPLINETYPE
 70
     6
  9
$SPLINESEGS
 70
     8
  9
$HANDSEED
  5
1C3
  9
$SURFTAB1
 70
     6
  9
$SURFTAB2
 70
     6
  9
$SURFTYPE
 70
     6
  9
$SURFU
 70
     6
  9
$SURFV
 70
     6
  9
$UCSBASE
  2

  9
$UCSNAME
  2

  9
$UCSORG
 10
0.0
 20
0.0
 30
0.0
  9
$UCSXDIR
 10
1.0
 20
0.0
 30
0.0
  9
$UCSYDIR
 10
0.0
 20
1.0
 30
0.0
  9
$UCSORTHOREF
  2

  9
$UCSORTHOVIEW
 70
     0
  9
$UCSORGTOP
 10
0.0
 20
0.0
 30
0.0
  9
$UCSORGBOTTOM
 10
0.0
 20
0.0
 30
0.0
  9
$UCSORGLEFT
 10
0.0
 20
0.0
 30
0.0
  9
$UCSORGRIGHT
 10
0.0
 20
0.0
 30
0.0
  9
$UCSORGFRONT
 10
0.0
 20
0.0
 30
0.0
  9
$UCSORGBACK
 10
0.0
 20
0.0
 30
0.0
  9
$PUCSBASE
  2

  9
$PUCSNAME
  2

  9
$PUCSORG
 10
0.0
 20
0.0
 30
0.0
  9
$PUCSXDIR
 10
1.0
 20
0.0
 30
0.0
  9
$PUCSYDIR
 10
0.0
 20
1.0
 30
0.0
  9
$PUCSORTHOREF
  2

  9
$PUCSORTHOVIEW
 70
     0
  9
$PUCSORGTOP
 10
0.0
 20
0.0
 30
0.0
  9
$PUCSORGBOTTOM
 10
0.0
 20
0.0
 30
0.0
  9
$PUCSORGLEFT
 10
0.0
 20
0.0
 30
0.0
  9
$PUCSORGRIGHT
 10
0.0
 20
0.0
 30
0.0
  9
$PUCSORGFRONT
 10
0.0
 20
0.0
 30
0.0
  9
$PUCSORGBACK
 10
0.0
 20
0.0
 30
0.0
  9
$USERI1
 70
     0
  9
$USERI2
 70
     0
  9
$USERI3
 70
     0
  9
$USERI4
 70
     0
  9
$USERI5
 70
     0
  9
$USERR1
 40
0.0
  9
$USERR2
 40
0.0
  9
$USERR3
 40
0.0
  9
$USERR4
 40
0.0
  9
$USERR5
 40
0.0
  9
$WORLDVIEW
 70
     1
  9
$SHADEDGE
 70
     3
  9
$SHADEDIF
 70
    70
  9
$TILEMODE
 70
     1
  9
$MAXACTVP
 70
    64
  9
$PINSBASE
 10
0.0
 20
0.0
 30
0.0
  9
$PLIMCHECK
 70
     0
  9
$PEXTMIN
 10
1.0000000000E+20
 20
1.0000000000E+20
 30
1.0000000000E+20
  9
$PEXTMAX
 10
-1.0000000000E+20
 20
-1.0000000000E+20
 30
-1.0000000000E+20
  9
$PLIMMIN
 10
0.0
 20
0.0
  9
$PLIMMAX
 10
420.0
 20
297.0
  9
$UNITMODE
 70
     0
  9
$VISRETAIN
 70
     1
  9
$PLINEGEN
 70
     0
  9
$PSLTSCALE
 70
     1
  9
$TREEDEPTH
 70
  3020
  9
$CMLSTYLE
  2
Standard
  9
$CMLJUST
 70
     0
  9
$CMLSCALE
 40
20.0
  9
$PROXYGRAPHICS
 70
     1
  9
$MEASUREMENT
 70
     1
  9
$CELWEIGHT
370
    -1
  9
$ENDCAPS
280
     0
  9
$JOINSTYLE
280
     0
  9
$LWDISPLAY
290
     1
  9
$INSUNITS
 70
     4
  9
$HYPERLINKBASE
  1

  9
$STYLESHEET
  1

  9
$XEDIT
290
     1
  9
$CEPSNTYPE
380
     0
  9
$PSTYLEMODE
290
     1
  9
$FINGERPRINTGUID
  2
{88b7e443-938d-485e-bdf3-76c4a8ece9f4}
  9
$VERSIONGUID
  2
{FAEB1C32-E019-11D5-929B-00C0DF256EC4}
  9
$EXTNAMES
290
     1
  9
$PSVPSCALE
 40
0.0
  9
$OLESTARTUP
290
     0
  0
ENDSEC
  0
SECTION
  2
CLASSES
  0
CLASS
  1
ACDBDICTIONARYWDFLT
  2
AcDbDictionaryWithDefault
  3
ObjectDBX Classes
 90
        0
280
     0
281
     0
  0
CLASS
  1
VISUALSTYLE
  2
AcDbVisualStyle
  3
ObjectDBX Classes
 90
     4095
280
     0
281
     0
  0
CLASS
  1
MATERIAL
  2
AcDbMaterial
  3
ObjectDBX Classes
 90
     1153
280
     0
281
     0
  0
CLASS
  1
SCALE
  2
AcDbScale
  3
ObjectDBX Classes
 90
     1153
280
     0
281
     0
  0
CLASS
  1
TABLESTYLE
  2
AcDbTableStyle
  3
ObjectDBX Classes
 90
     4095
280
     0
281
     0
  0
CLASS
  1
MLEADERSTYLE
  2
AcDbMLeaderStyle
  3
ACDB_MLEADERSTYLE_CLASS
 90
     4095
280
     0
281
     0
  0
CLASS
  1
SUN
  2
AcDbSun
  3
SCENEOE
 90
     1153
280
     0
281
     0
  0
CLASS
  1
ACDBPLACEHOLDER
  2
AcDbPlaceHolder
  3
ObjectDBX Classes
 90
        0
280
     0
281
     0
  0
CLASS
  1
LAYOUT
  2
AcDbLayout
  3
ObjectDBX Classes
 90
        0
280
     0
281
     0
  0
ENDSEC
  0
SECTION
  2
TABLES
  0
TABLE
  2
VPORT
  5
8
330
0
100
AcDbSymbolTable
 70
     1
  0
VPORT
  5
29
330
8
100
AcDbSymbolTableRecord
100
AcDbViewportTableRecord
  2
*Active
 70
     0
 10
0.0
 20
0.0
 11
1.0
 21
1.0
 12
420.5
 22
297.0
 13
0.0
 23
0.0
 14
10.0
 24
10.0
 15
10.0
 25
10.0
 16
0.0
 26
0.0
 36
1.0
 17
0.0
 27
0.0
 37
0.0
 40
594.0
 41
1.4158249158
 42
50.0
 43
0.0
 44
0.0
 50
0.0
 51
0.0
 71
     0
 72
  2000
 73
     1
 74
     3
 75
     0
 76
     0
 77
     0
 78
     0
281
     0
 65
     1
110
0.0
120
0.0
130
0.0
111
1.0
121
0.0
131
0.0
112
0.0
122
1.0
132
0.0
 79
     0
146
0.0
  0
ENDTAB
  0
TABLE
  2
LTYPE
  5
5
330
0
100
AcDbSymbolTable
 70
     6
  0
LTYPE
  5
14
330
5
100
AcDbSymbolTableRecord
100
AcDbLinetypeTableRecord
  2
ByBlock
 70
     0
  3

 72
    65
 73
     0
 40
0.0
  0
LTYPE
  5
15
330
5
100
AcDbSymbolTableRecord
100
AcDbLinetypeTableRecord
  2
ByLayer
 70
     0
  3

 72
    65
 73
     0
 40
0.0
  0
LTYPE
  5
16
330
5
100
AcDbSymbolTableRecord
100
AcDbLinetypeTableRecord
  2
Continuous
 70
     0
  3
Solid line
 72
    65
 73
     0
 40
0.0
  0
LTYPE
  5
6E
330
5
100
AcDbSymbolTableRecord
100
AcDbLinetypeTableRecord
  2
HIDDEN
 70
     0
  3
Hidden __ __ __ __ __ __ __ __ __ __ __ __ __ __
 72
    65
 73
     2
 40
1.905
 49
1.27
 74
     0
 49
-0.635
 74
     0
  0
LTYPE
  5
6F
330
5
100
AcDbSymbolTableRecord
100
AcDbLinetypeTableRecord
  2
PHANTOM
 70
     0
  3
Phantom ______  __  __  ______  __  __  ______
 72
    65
 73
     6
 40
12.7
 49
6.35
 74
     0
 49
-1.27
 74
     0
 49
1.27
 74
     0
 49
-1.27
 74
     0
 49
1.27
 74
     0
 49
-1.27
 74
     0
  0
LTYPE
  5
70
330
5
100
AcDbSymbolTableRecord
100
AcDbLinetypeTableRecord
  2
CENTER
 70
     0
  3
Center ____ _ ____ _ ____ _ ____ _ ____ _ ____
 72
    65
 73
     4
 40
10.16
 49
6.35
 74
     0
 49
-1.27
 74
     0
 49
1.27
 74
     0
 49
-1.27
 74
     0
  0
LTYPE
  5
71
330
5
100
AcDbSymbolTableRecord
100
AcDbLinetypeTableRecord
  2
CENTERX2
 70
     0
  3
Center (2x) ________  __  ________  __  _____
 72
    65
 73
     4
 40
20.32
 49
12.7
 74
     0
 49
-2.54
 74
     0
 49
2.54
 74
     0
 49
-2.54
 74
     0
  0
LTYPE
  5
72
330
5
100
AcDbSymbolTableRecord
100
AcDbLinetypeTableRecord
  2
DOT2
 70
     0
  3
Dot (.5x) ........................................
 72
    65
 73
     2
 40
0.635
 49
0.0
 74
     0
 49
-0.635
 74
     0
  0
ENDTAB
  0
TABLE
  2
LAYER
  5
2
330
0
100
AcDbSymbolTable
 70
     2
  0
LAYER
  5
10
330
2
100
AcDbSymbolTableRecord
100
AcDbLayerTableRecord
  2
0
 70
     0
 62
     7
  6
Continuous
370
    -3
390
F
  0
LAYER
  5
73
330
2
100
AcDbSymbolTableRecord
100
AcDbLayerTableRecord
  2
SLD-0
 70
     0
 62
   179
  6
Continuous
370
    -3
390
F
  0
ENDTAB
  0
TABLE
  2
STYLE
  5
3
330
0
100
AcDbSymbolTable
 70
     2
  0
STYLE
  5
11
330
3
100
AcDbSymbolTableRecord
100
AcDbTextStyleTableRecord
  2
Standard
 70
     0
 40
0.0
 41
1.0
 50
0.0
 71
     0
 42
3.5
  3
txt
  4

  0
STYLE
  5
179
330
3
100
AcDbSymbolTableRecord
100
AcDbTextStyleTableRecord
  2
SLDTEXTSTYLE0
 70
     0
 40
0.0
 41
0.75
 50
0.0
 71
     0
 42
3.5
  3
TXT
  4

  0
ENDTAB
  0
TABLE
  2
VIEW
  5
6
330
0
100
AcDbSymbolTable
 70
     0
  0
ENDTAB
  0
TABLE
  2
UCS
  5
7
330
0
100
AcDbSymbolTable
 70
     0
  0
ENDTAB
  0
TABLE
  2
APPID
  5
9
330
0
100
AcDbSymbolTable
 70
     1
  0
APPID
  5
12
330
9
100
AcDbSymbolTableRecord
100
AcDbRegAppTableRecord
  2
ACAD
 70
     0
  0
ENDTAB
  0
TABLE
  2
DIMSTYLE
  5
A
330
0
100
AcDbSymbolTable
 70
     3
100
AcDbDimStyleTable
  0
DIMSTYLE
105
27
330
A
100
AcDbSymbolTableRecord
100
AcDbDimStyleTableRecord
  2
ISO-25
 70
     0
 41
2.5
 42
0.625
 43
3.75
 44
1.25
 73
     0
 74
     0
 77
     1
 78
     8
140
2.5
141
2.5
143
0.0393700787
147
0.625
171
     3
172
     1
178
     0
271
     2
272
     2
274
     3
278
    44
283
     0
284
     8
340
11
  0
DIMSTYLE
105
17A
102
{ACAD_REACTORS
330
178
330
184
330
18E
330
198
330
1AF
330
1B9
102
}
330
A
100
AcDbSymbolTableRecord
100
AcDbDimStyleTableRecord
  2
SLDDIMSTYLE0
 70
     0
 41
3.302
 44
0.0
 45
0.000000001
 73
     0
 74
     0
 77
     1
 78
     4
 79
     1
140
3.5
147
0.875
173
     1
178
     0
271
     2
272
     2
276
     2
284
    12
340
179
  0
DIMSTYLE
105
1A3
102
{ACAD_REACTORS
330
1A2
102
}
330
A
100
AcDbSymbolTableRecord
100
AcDbDimStyleTableRecord
  2
SLDDIMSTYLE1
 70
     0
 41
3.302
 44
0.0
 45
0.000000001
 73
     0
 74
     0
 77
     1
 78
     4
 79
     1
140
3.5
141
0.0
147
0.875
172
     1
173
     1
178
     0
271
     2
272
     2
276
     2
284
    12
340
179
341
1A4
343
1A4
  0
ENDTAB
  0
TABLE
  2
BLOCK_RECORD
  5
1
330
0
100
AcDbSymbolTable
 70
     9
  0
BLOCK_RECORD
  5
1F
330
1
100
AcDbSymbolTableRecord
100
AcDbBlockTableRecord
  2
*Model_Space
340
22
  0
BLOCK_RECORD
  5
1B
330
1
100
AcDbSymbolTableRecord
100
AcDbBlockTableRecord
  2
*Paper_Space
340
1E
  0
BLOCK_RECORD
  5
23
330
1
100
AcDbSymbolTableRecord
100
AcDbBlockTableRecord
  2
*Paper_Space0
340
26
  0
BLOCK_RECORD
  5
17B
330
1
100
AcDbSymbolTableRecord
100
AcDbBlockTableRecord
  2
_D
340
0
  0
BLOCK_RECORD
  5
185
330
1
100
AcDbSymbolTableRecord
100
AcDbBlockTableRecord
  2
_D_1
340
0
  0
BLOCK_RECORD
  5
18F
330
1
100
AcDbSymbolTableRecord
100
AcDbBlockTableRecord
  2
_D_2
340
0
  0
BLOCK_RECORD
  5
199
330
1
100
AcDbSymbolTableRecord
100
AcDbBlockTableRecord
  2
_D_3
340
0
  0
BLOCK_RECORD
  5
1A4
330
1
100
AcDbSymbolTableRecord
100
AcDbBlockTableRecord
  2
_None
340
0
  0
BLOCK_RECORD
  5
1A7
330
1
100
AcDbSymbolTableRecord
100
AcDbBlockTableRecord
  2
_D_4
340
0
  0
BLOCK_RECORD
  5
1B0
330
1
100
AcDbSymbolTableRecord
100
AcDbBlockTableRecord
  2
_D_5
340
0
  0
BLOCK_RECORD
  5
1BA
330
1
100
AcDbSymbolTableRecord
100
AcDbBlockTableRecord
  2
_D_6
340
0
  0
ENDTAB
  0
ENDSEC
  0
SECTION
  2
BLOCKS
  0
BLOCK
  5
20
330
1F
100
AcDbEntity
  8
0
100
AcDbBlockBegin
  2
*Model_Space
 70
     0
 10
0.0
 20
0.0
 30
0.0
  3
*Model_Space
  1

  0
ENDBLK
  5
21
330
1F
100
AcDbEntity
  8
0
100
AcDbBlockEnd
  0
BLOCK
  5
1C
330
1B
100
AcDbEntity
 67
     1
  8
0
100
AcDbBlockBegin
  2
*Paper_Space
 70
     0
 10
0.0
 20
0.0
 30
0.0
  3
*Paper_Space
  1

  0
ENDBLK
  5
1D
330
1B
100
AcDbEntity
 67
     1
  8
0
100
AcDbBlockEnd
  0
BLOCK
  5
24
330
23
100
AcDbEntity
  8
0
100
AcDbBlockBegin
  2
*Paper_Space0
 70
     0
 10
0.0
 20
0.0
 30
0.0
  3
*Paper_Space0
  1

  0
ENDBLK
  5
25
330
23
100
AcDbEntity
  8
0
100
AcDbBlockEnd
  0
BLOCK
  5
17C
330
17B
100
AcDbEntity
  8
0
100
AcDbBlockBegin
  2
_D
 70
     0
 10
0.0
 20
0.0
 30
0.0
  3
_D
  1

  0
SOLID
  5
17E
330
17B
100
AcDbEntity
  8
SLD-0
100
AcDbTrace
 10
500.9078230501
 20
465.9587194412
 30
0.0
 11
501.4158230501
 21
469.2607194412
 31
0.0
 12
500.3998230501
 22
469.2607194412
 32
0.0
 13
500.3998230501
 23
469.2607194412
 33
0.0
  0
SOLID
  5
17F
330
17B
100
AcDbEntity
  8
SLD-0
100
AcDbTrace
 10
500.9078230501
 20
575.9587194412
 30
0.0
 11
500.3998230501
 21
572.6567194412
 31
0.0
 12
501.4158230501
 22
572.6567194412
 32
0.0
 13
501.4158230501
 23
572.6567194412
 33
0.0
  0
LINE
  5
180
330
17B
100
AcDbEntity
  8
SLD-0
100
AcDbLine
 10
446.0921769499
 20
465.9587194412
 30
0.0
 11
501.9078230501
 21
465.9587194412
 31
0.0
  0
LINE
  5
181
330
17B
100
AcDbEntity
  8
SLD-0
100
AcDbLine
 10
446.0921769499
 20
575.9587194412
 30
0.0
 11
501.9078230501
 21
575.9587194412
 31
0.0
  0
LINE
  5
182
330
17B
100
AcDbEntity
  8
SLD-0
100
AcDbLine
 10
500.9078230501
 20
465.9587194412
 30
0.0
 11
500.9078230501
 21
575.9587194412
 31
0.0
  0
MTEXT
  5
183
330
17B
100
AcDbEntity
  8
SLD-0
100
AcDbMText
 10
496.3960861355
 20
516.65236168
 30
0.0
 40
3.5
 41
0.0
 71
     1
 72
     1
  1
110.00
  7
SLDTEXTSTYLE0
 11
6.123233995736766E-17
 21
1.0
 31
0.0
 73
     1
 44
1.0
  0
ENDBLK
  5
17D
330
17B
100
AcDbEntity
  8
0
100
AcDbBlockEnd
  0
BLOCK
  5
186
330
185
100
AcDbEntity
  8
0
100
AcDbBlockBegin
  2
_D_1
 70
     0
 10
0.0
 20
0.0
 30
0.0
  3
_D_1
  1

  0
SOLID
  5
188
330
185
100
AcDbEntity
  8
SLD-0
100
AcDbTrace
 10
371.1267753201
 20
5.8774854482
 30
0.0
 11
371.6347753201
 21
9.1794854482
 31
0.0
 12
370.6187753201
 22
9.1794854482
 32
0.0
 13
370.6187753201
 23
9.1794854482
 33
0.0
  0
SOLID
  5
189
330
185
100
AcDbEntity
  8
SLD-0
100
AcDbTrace
 10
371.1267753201
 20
225.8774854482
 30
0.0
 11
370.6187753201
 21
222.5754854482
 31
0.0
 12
371.6347753201
 22
222.5754854482
 32
0.0
 13
371.6347753201
 23
222.5754854482
 33
0.0
  0
LINE
  5
18A
330
185
100
AcDbEntity
  8
SLD-0
100
AcDbLine
 10
347.4401629802
 20
5.8774854482
 30
0.0
 11
372.1267753201
 21
5.8774854482
 31
0.0
  0
LINE
  5
18B
330
185
100
AcDbEntity
  8
SLD-0
100
AcDbLine
 10
347.4401629802
 20
225.8774854482
 30
0.0
 11
372.1267753201
 21
225.8774854482
 31
0.0
  0
LINE
  5
18C
330
185
100
AcDbEntity
  8
SLD-0
100
AcDbLine
 10
371.1267753201
 20
5.8774854482
 30
0.0
 11
371.1267753201
 21
225.8774854482
 31
0.0
  0
MTEXT
  5
18D
330
185
100
AcDbEntity
  8
SLD-0
100
AcDbMText
 10
366.6150384056
 20
109.6759239617
 30
0.0
 40
3.5
 41
0.0
 71
     1
 72
     1
  1
220.00
  7
SLDTEXTSTYLE0
 11
6.123233995736766E-17
 21
1.0
 31
0.0
 73
     1
 44
1.0
  0
ENDBLK
  5
187
330
185
100
AcDbEntity
  8
0
100
AcDbBlockEnd
  0
BLOCK
  5
190
330
18F
100
AcDbEntity
  8
0
100
AcDbBlockBegin
  2
_D_2
 70
     0
 10
0.0
 20
0.0
 30
0.0
  3
_D_2
  1

  0
SOLID
  5
192
330
18F
100
AcDbEntity
  8
SLD-0
100
AcDbTrace
 10
702.4597206054
 20
429.9550407451
 30
0.0
 11
699.1577206054
 21
430.4630407451
 31
0.0
 12
699.1577206054
 22
429.4470407451
 32
0.0
 13
699.1577206054
 23
429.4470407451
 33
0.0
  0
SOLID
  5
193
330
18F
100
AcDbEntity
  8
SLD-0
100
AcDbTrace
 10
392.4597206054
 20
429.9550407451
 30
0.0
 11
395.7617206054
 21
429.4470407451
 31
0.0
 12
395.7617206054
 22
430.4630407451
 32
0.0
 13
395.7617206054
 23
430.4630407451
 33
0.0
  0
LINE
  5
194
330
18F
100
AcDbEntity
  8
SLD-0
100
AcDbLine
 10
702.4597206054
 20
404.0897555297
 30
0.0
 11
702.4597206054
 21
430.9550407451
 31
0.0
  0
LINE
  5
195
330
18F
100
AcDbEntity
  8
SLD-0
100
AcDbLine
 10
392.4597206054
 20
404.0897555297
 30
0.0
 11
392.4597206054
 21
430.9550407451
 31
0.0
  0
LINE
  5
196
330
18F
100
AcDbEntity
  8
SLD-0
100
AcDbLine
 10
702.4597206054
 20
429.9550407451
 30
0.0
 11
392.4597206054
 21
429.9550407451
 31
0.0
  0
MTEXT
  5
197
330
18F
100
AcDbEntity
  8
SLD-0
100
AcDbMText
 10
511.4293116218
 20
434.4667776596
 30
0.0
 40
3.5
 41
0.0
 71
     1
 72
     1
  1
310.00
  7
SLDTEXTSTYLE0
 73
     1
 44
1.0
  0
ENDBLK
  5
191
330
18F
100
AcDbEntity
  8
0
100
AcDbBlockEnd
  0
BLOCK
  5
19A
330
199
100
AcDbEntity
  8
0
100
AcDbBlockBegin
  2
_D_3
 70
     0
 10
0.0
 20
0.0
 30
0.0
  3
_D_3
  1

  0
SOLID
  5
19C
330
199
100
AcDbEntity
  8
SLD-0
100
AcDbTrace
 10
423.7487077998
 20
181.6782537835
 30
0.0
 11
427.0507077998
 21
181.1702537835
 31
0.0
 12
427.0507077998
 22
182.1862537835
 32
0.0
 13
427.0507077998
 23
182.1862537835
 33
0.0
  0
SOLID
  5
19D
330
199
100
AcDbEntity
  8
SLD-0
100
AcDbTrace
 10
494.7487077998
 20
181.6782537835
 30
0.0
 11
491.4467077998
 21
182.1862537835
 31
0.0
 12
491.4467077998
 22
181.1702537835
 32
0.0
 13
491.4467077998
 23
181.1702537835
 33
0.0
  0
LINE
  5
19E
330
199
100
AcDbEntity
  8
SLD-0
100
AcDbLine
 10
423.7487077998
 20
203.5341792782
 30
0.0
 11
423.7487077998
 21
180.6782537835
 31
0.0
  0
LINE
  5
19F
330
199
100
AcDbEntity
  8
SLD-0
100
AcDbLine
 10
494.7487077998
 20
203.5341792782
 30
0.0
 11
494.7487077998
 21
180.6782537835
 31
0.0
  0
LINE
  5
1A0
330
199
100
AcDbEntity
  8
SLD-0
100
AcDbLine
 10
423.7487077998
 20
181.6782537835
 30
0.0
 11
494.7487077998
 21
181.6782537835
 31
0.0
  0
MTEXT
  5
1A1
330
199
100
AcDbEntity
  8
SLD-0
100
AcDbMText
 10
456.2958248437
 20
186.189990698
 30
0.0
 40
3.5
 41
0.0
 71
     1
 72
     1
  1
71.00
  7
SLDTEXTSTYLE0
 73
     1
 44
1.0
  0
ENDBLK
  5
19B
330
199
100
AcDbEntity
  8
0
100
AcDbBlockEnd
  0
BLOCK
  5
1A5
330
1A4
100
AcDbEntity
  8
0
100
AcDbBlockBegin
  2
_None
 70
     0
 10
0.0
 20
0.0
 30
0.0
  3
_None
  1

  0
ENDBLK
  5
1A6
330
1A4
100
AcDbEntity
  8
0
100
AcDbBlockEnd
  0
BLOCK
  5
1A8
330
1A7
100
AcDbEntity
  8
0
100
AcDbBlockBegin
  2
_D_4
 70
     0
 10
0.0
 20
0.0
 30
0.0
  3
_D_4
  1

  0
SOLID
  5
1AA
330
1A7
100
AcDbEntity
  8
SLD-0
100
AcDbTrace
 10
630.3553095176
 20
226.140780996
 30
0.0
 11
633.0493863539
 21
228.1164373427
 31
0.0
 12
632.3309658642
 22
228.8348578323
 32
0.0
 13
632.3309658642
 23
228.8348578323
 33
0.0
  0
LINE
  5
1AB
330
1A7
100
AcDbEntity
  8
SLD-0
100
AcDbLine
 10
630.3553095176
 20
226.140780996
 30
0.0
 11
654.4072482906
 21
250.1927197691
 31
0.0
  0
LINE
  5
1AC
330
1A7
100
AcDbEntity
  8
SLD-0
100
AcDbLine
 10
630.3553095176
 20
226.140780996
 30
0.0
 11
609.142106082
 21
204.9275775604
 31
0.0
  0
MTEXT
  5
1AD
330
1A7
100
AcDbEntity
  8
SLD-0
100
AcDbMText
 10
639.2602978905
 20
241.4169213911
 30
0.0
 40
3.5
 41
0.0
 71
     1
 72
     1
  1
%%c
  7
SLDTEXTSTYLE0
 11
0.7071067811865476
 21
0.7071067811865476
 31
0.0
 73
     1
 44
1.0
  0
MTEXT
  5
1AE
330
1A7
100
AcDbEntity
  8
SLD-0
100
AcDbMText
 10
642.9549062302
 20
245.1871508083
 30
0.0
 40
3.5
 41
0.0
 71
     1
 72
     1
  1
30.00
  7
SLDTEXTSTYLE0
 11
0.7071067811865476
 21
0.7071067811865476
 31
0.0
 73
     1
 44
1.0
  0
ENDBLK
  5
1A9
330
1A7
100
AcDbEntity
  8
0
100
AcDbBlockEnd
  0
BLOCK
  5
1B1
330
1B0
100
AcDbEntity
  8
0
100
AcDbBlockBegin
  2
_D_5
 70
     0
 10
0.0
 20
0.0
 30
0.0
  3
_D_5
  1

  0
SOLID
  5
1B3
330
1B0
100
AcDbEntity
  8
SLD-0
100
AcDbTrace
 10
579.7487077998
 20
123.8410477299
 30
0.0
 11
583.0507077998
 21
123.3330477299
 31
0.0
 12
583.0507077998
 22
124.3490477299
 32
0.0
 13
583.0507077998
 23
124.3490477299
 33
0.0
  0
SOLID
  5
1B4
330
1B0
100
AcDbEntity
  8
SLD-0
100
AcDbTrace
 10
609.7487077998
 20
123.8410477299
 30
0.0
 11
606.4467077998
 21
124.3490477299
 31
0.0
 12
606.4467077998
 22
123.3330477299
 32
0.0
 13
606.4467077998
 23
123.3330477299
 33
0.0
  0
LINE
  5
1B5
330
1B0
100
AcDbEntity
  8
SLD-0
100
AcDbLine
 10
579.7487077998
 20
154.5341792782
 30
0.0
 11
579.7487077998
 21
122.8410477299
 31
0.0
  0
LINE
  5
1B6
330
1B0
100
AcDbEntity
  8
SLD-0
100
AcDbLine
 10
609.7487077998
 20
154.5341792782
 30
0.0
 11
609.7487077998
 21
122.8410477299
 31
0.0
  0
LINE
  5
1B7
330
1B0
100
AcDbEntity
  8
SLD-0
100
AcDbLine
 10
579.7487077998
 20
123.8410477299
 30
0.0
 11
609.7487077998
 21
123.8410477299
 31
0.0
  0
MTEXT
  5
1B8
330
1B0
100
AcDbEntity
  8
SLD-0
100
AcDbMText
 10
585.3715407925
 20
128.3527846445
 30
0.0
 40
3.5
 41
0.0
 71
     1
 72
     1
  1
30.00
  7
SLDTEXTSTYLE0
 73
     1
 44
1.0
  0
ENDBLK
  5
1B2
330
1B0
100
AcDbEntity
  8
0
100
AcDbBlockEnd
  0
BLOCK
  5
1BB
330
1BA
100
AcDbEntity
  8
0
100
AcDbBlockBegin
  2
_D_6
 70
     0
 10
0.0
 20
0.0
 30
0.0
  3
_D_6
  1

  0
SOLID
  5
1BD
330
1BA
100
AcDbEntity
  8
SLD-0
100
AcDbTrace
 10
579.7487077998
 20
123.8410477299
 30
0.0
 11
576.4467077998
 21
124.3490477299
 31
0.0
 12
576.4467077998
 22
123.3330477299
 32
0.0
 13
576.4467077998
 23
123.3330477299
 33
0.0
  0
SOLID
  5
1BE
330
1BA
100
AcDbEntity
  8
SLD-0
100
AcDbTrace
 10
519.7487077998
 20
123.8410477299
 30
0.0
 11
523.0507077998
 21
123.3330477299
 31
0.0
 12
523.0507077998
 22
124.3490477299
 32
0.0
 13
523.0507077998
 23
124.3490477299
 33
0.0
  0
LINE
  5
1BF
330
1BA
100
AcDbEntity
  8
SLD-0
100
AcDbLine
 10
579.7487077998
 20
159.5341792782
 30
0.0
 11
579.7487077998
 21
122.8410477299
 31
0.0
  0
LINE
  5
1C0
330
1BA
100
AcDbEntity
  8
SLD-0
100
AcDbLine
 10
519.7487077998
 20
159.5341792782
 30
0.0
 11
519.7487077998
 21
122.8410477299
 31
0.0
  0
LINE
  5
1C1
330
1BA
100
AcDbEntity
  8
SLD-0
100
AcDbLine
 10
579.7487077998
 20
123.8410477299
 30
0.0
 11
519.7487077998
 21
123.8410477299
 31
0.0
  0
MTEXT
  5
1C2
330
1BA
100
AcDbEntity
  8
SLD-0
100
AcDbMText
 10
537.4089796749
 20
128.3527846445
 30
0.0
 40
3.5
 41
0.0
 71
     1
 72
     1
  1
60.00
  7
SLDTEXTSTYLE0
 73
     1
 44
1.0
  0
ENDBLK
  5
1BC
330
1BA
100
AcDbEntity
  8
0
100
AcDbBlockEnd
  0
ENDSEC
  0
SECTION
  2
ENTITIES
  0
LINE
  5
74
330
1F
100
AcDbEntity
  8
SLD-0
  6
Continuous
 62
   179
370
    25
100
AcDbLine
 10
336.4401629802
 20
190.8774854482
 30
0.0
 11
331.4401629802
 21
190.8774854482
 31
0.0
  0
LINE
  5
75
330
1F
100
AcDbEntity
  8
SLD-0
  6
Continuous
 62
   179
370
    25
100
AcDbLine
 10
336.4401629802
 20
160.8774854482
 30
0.0
 11
336.4401629802
 21
190.8774854482
 31
0.0
  0
LINE
  5
76
330
1F
100
AcDbEntity
  8
SLD-0
  6
Continuous
 62
   179
370
    25
100
AcDbLine
 10
331.4401629802
 20
160.8774854482
 30
0.0
 11
336.4401629802
 21
160.8774854482
 31
0.0
  0
LINE
  5
77
330
1F
100
AcDbEntity
  8
SLD-0
  6
Continuous
 62
   179
370
    25
100
AcDbLine
 10
331.4401629802
 20
190.8774854482
 30
0.0
 11
331.4401629802
 21
160.8774854482
 31
0.0
  0
LINE
  5
78
330
1F
100
AcDbEntity
  8
SLD-0
  6
Continuous
 62
   179
370
    25
100
AcDbLine
 10
336.4401629802
 20
130.8774854482
 30
0.0
 11
331.4401629802
 21
130.8774854482
 31
0.0
  0
LINE
  5
79
330
1F
100
AcDbEntity
  8
SLD-0
  6
Continuous
 62
   179
370
    25
100
AcDbLine
 10
336.4401629802
 20
100.8774854482
 30
0.0
 11
336.4401629802
 21
130.8774854482
 31
0.0
  0
LINE
  5
7A
330
1F
100
AcDbEntity
  8
SLD-0
  6
Continuous
 62
   179
370
    25
100
AcDbLine
 10
331.4401629802
 20
100.8774854482
 30
0.0
 11
336.4401629802
 21
100.8774854482
 31
0.0
  0
LINE
  5
7B
330
1F
100
AcDbEntity
  8
SLD-0
  6
Continuous
 62
   179
370
    25
100
AcDbLine
 10
331.4401629802
 20
130.8774854482
 30
0.0
 11
331.4401629802
 21
100.8774854482
 31
0.0
  0
LINE
  5
7C
330
1F
100
AcDbEntity
  8
SLD-0
  6
Continuous
 62
   179
370
    25
100
AcDbLine
 10
336.4401629802
 20
70.8774854482
 30
0.0
 11
331.4401629802
 21
70.8774854482
 31
0.0
  0
LINE
  5
7D
330
1F
100
AcDbEntity
  8
SLD-0
  6
Continuous
 62
   179
370
    25
100
AcDbLine
 10
336.4401629802
 20
40.8774854482
 30
0.0
 11
336.4401629802
 21
70.8774854482
 31
0.0
  0
LINE
  5
7E
330
1F
100
AcDbEntity
  8
SLD-0
  6
Continuous
 62
   179
370
    25
100
AcDbLine
 10
331.4401629802
 20
40.8774854482
 30
0.0
 11
336.4401629802
 21
40.8774854482
 31
0.0
  0
LINE
  5
7F
330
1F
100
AcDbEntity
  8
SLD-0
  6
Continuous
 62
   179
370
    25
100
AcDbLine
 10
331.4401629802
 20
70.8774854482
 30
0.0
 11
331.4401629802
 21
40.8774854482
 31
0.0
  0
LINE
  5
80
330
1F
100
AcDbEntity
  8
SLD-0
  6
Continuous
 62
   179
370
    25
100
AcDbLine
 10
16.4401629802
 20
70.8774854482
 30
0.0
 11
16.4401629802
 21
40.8774854482
 31
0.0
  0
LINE
  5
81
330
1F
100
AcDbEntity
  8
SLD-0
  6
Continuous
 62
   179
370
    25
100
AcDbLine
 10
21.4401629802
 20
70.8774854482
 30
0.0
 11
16.4401629802
 21
70.8774854482
 31
0.0
  0
LINE
  5
82
330
1F
100
AcDbEntity
  8
SLD-0
  6
Continuous
 62
   179
370
    25
100
AcDbLine
 10
21.4401629802
 20
40.8774854482
 30
0.0
 11
21.4401629802
 21
70.8774854482
 31
0.0
  0
LINE
  5
83
330
1F
100
AcDbEntity
  8
SLD-0
  6
Continuous
 62
   179
370
    25
100
AcDbLine
 10
16.4401629802
 20
40.8774854482
 30
0.0
 11
21.4401629802
 21
40.8774854482
 31
0.0
  0
LINE
  5
84
330
1F
100
AcDbEntity
  8
SLD-0
  6
Continuous
 62
   179
370
    25
100
AcDbLine
 10
21.4401629802
 20
130.8774854482
 30
0.0
 11
16.4401629802
 21
130.8774854482
 31
0.0
  0
LINE
  5
85
330
1F
100
AcDbEntity
  8
SLD-0
  6
Continuous
 62
   179
370
    25
100
AcDbLine
 10
21.4401629802
 20
100.8774854482
 30
0.0
 11
21.4401629802
 21
130.8774854482
 31
0.0
  0
LINE
  5
86
330
1F
100
AcDbEntity
  8
SLD-0
  6
Continuous
 62
   179
370
    25
100
AcDbLine
 10
16.4401629802
 20
100.8774854482
 30
0.0
 11
21.4401629802
 21
100.8774854482
 31
0.0
  0
LINE
  5
87
330
1F
100
AcDbEntity
  8
SLD-0
  6
Continuous
 62
   179
370
    25
100
AcDbLine
 10
16.4401629802
 20
130.8774854482
 30
0.0
 11
16.4401629802
 21
100.8774854482
 31
0.0
  0
LINE
  5
88
330
1F
100
AcDbEntity
  8
SLD-0
  6
Continuous
 62
   179
370
    25
100
AcDbLine
 10
16.4401629802
 20
190.8774854482
 30
0.0
 11
16.4401629802
 21
160.8774854482
 31
0.0
  0
LINE
  5
89
330
1F
100
AcDbEntity
  8
SLD-0
  6
Continuous
 62
   179
370
    25
100
AcDbLine
 10
21.4401629802
 20
190.8774854482
 30
0.0
 11
16.4401629802
 21
190.8774854482
 31
0.0
  0
LINE
  5
8A
330
1F
100
AcDbEntity
  8
SLD-0
  6
Continuous
 62
   179
370
    25
100
AcDbLine
 10
21.4401629802
 20
160.8774854482
 30
0.0
 11
21.4401629802
 21
190.8774854482
 31
0.0
  0
LINE
  5
8B
330
1F
100
AcDbEntity
  8
SLD-0
  6
Continuous
 62
   179
370
    25
100
AcDbLine
 10
16.4401629802
 20
160.8774854482
 30
0.0
 11
21.4401629802
 21
160.8774854482
 31
0.0
  0
LINE
  5
8C
330
1F
100
AcDbEntity
  8
SLD-0
  6
Continuous
 62
   179
370
    25
100
AcDbLine
 10
26.4401629802
 20
210.8774854482
 30
0.0
 11
56.4401629802
 21
210.8774854482
 31
0.0
  0
LINE
  5
8D
330
1F
100
AcDbEntity
  8
SLD-0
  6
Continuous
 62
   179
370
    25
100
AcDbLine
 10
26.4401629802
 20
215.8774854482
 30
0.0
 11
26.4401629802
 21
210.8774854482
 31
0.0
  0
LINE
  5
8E
330
1F
100
AcDbEntity
  8
SLD-0
  6
Continuous
 62
   179
370
    25
100
AcDbLine
 10
56.4401629802
 20
215.8774854482
 30
0.0
 11
26.4401629802
 21
215.8774854482
 31
0.0
  0
LINE
  5
8F
330
1F
100
AcDbEntity
  8
SLD-0
  6
Continuous
 62
   179
370
    25
100
AcDbLine
 10
56.4401629802
 20
210.8774854482
 30
0.0
 11
56.4401629802
 21
215.8774854482
 31
0.0
  0
LINE
  5
90
330
1F
100
AcDbEntity
  8
SLD-0
  6
Continuous
 62
   179
370
    25
100
AcDbLine
 10
116.4401629802
 20
210.8774854482
 30
0.0
 11
146.4401629802
 21
210.8774854482
 31
0.0
  0
LINE
  5
91
330
1F
100
AcDbEntity
  8
SLD-0
  6
Continuous
 62
   179
370
    25
100
AcDbLine
 10
116.4401629802
 20
215.8774854482
 30
0.0
 11
116.4401629802
 21
210.8774854482
 31
0.0
  0
LINE
  5
92
330
1F
100
AcDbEntity
  8
SLD-0
  6
Continuous
 62
   179
370
    25
100
AcDbLine
 10
146.4401629802
 20
215.8774854482
 30
0.0
 11
116.4401629802
 21
215.8774854482
 31
0.0
  0
LINE
  5
93
330
1F
100
AcDbEntity
  8
SLD-0
  6
Continuous
 62
   179
370
    25
100
AcDbLine
 10
146.4401629802
 20
210.8774854482
 30
0.0
 11
146.4401629802
 21
215.8774854482
 31
0.0
  0
LINE
  5
94
330
1F
100
AcDbEntity
  8
SLD-0
  6
Continuous
 62
   179
370
    25
100
AcDbLine
 10
206.4401629802
 20
210.8774854482
 30
0.0
 11
236.4401629802
 21
210.8774854482
 31
0.0
  0
LINE
  5
95
330
1F
100
AcDbEntity
  8
SLD-0
  6
Continuous
 62
   179
370
    25
100
AcDbLine
 10
206.4401629802
 20
215.8774854482
 30
0.0
 11
206.4401629802
 21
210.8774854482
 31
0.0
  0
LINE
  5
96
330
1F
100
AcDbEntity
  8
SLD-0
  6
Continuous
 62
   179
370
    25
100
AcDbLine
 10
236.4401629802
 20
215.8774854482
 30
0.0
 11
206.4401629802
 21
215.8774854482
 31
0.0
  0
LINE
  5
97
330
1F
100
AcDbEntity
  8
SLD-0
  6
Continuous
 62
   179
370
    25
100
AcDbLine
 10
236.4401629802
 20
210.8774854482
 30
0.0
 11
236.4401629802
 21
215.8774854482
 31
0.0
  0
LINE
  5
98
330
1F
100
AcDbEntity
  8
SLD-0
  6
Continuous
 62
   179
370
    25
100
AcDbLine
 10
296.4401629802
 20
210.8774854482
 30
0.0
 11
326.4401629802
 21
210.8774854482
 31
0.0
  0
LINE
  5
99
330
1F
100
AcDbEntity
  8
SLD-0
  6
Continuous
 62
   179
370
    25
100
AcDbLine
 10
296.4401629802
 20
215.8774854482
 30
0.0
 11
296.4401629802
 21
210.8774854482
 31
0.0
  0
LINE
  5
9A
330
1F
100
AcDbEntity
  8
SLD-0
  6
Continuous
 62
   179
370
    25
100
AcDbLine
 10
326.4401629802
 20
215.8774854482
 30
0.0
 11
296.4401629802
 21
215.8774854482
 31
0.0
  0
LINE
  5
9B
330
1F
100
AcDbEntity
  8
SLD-0
  6
Continuous
 62
   179
370
    25
100
AcDbLine
 10
326.4401629802
 20
210.8774854482
 30
0.0
 11
326.4401629802
 21
215.8774854482
 31
0.0
  0
LINE
  5
9C
330
1F
100
AcDbEntity
  8
SLD-0
  6
Continuous
 62
   179
370
    25
100
AcDbLine
 10
296.4401629802
 20
20.8774854482
 30
0.0
 11
296.4401629802
 21
15.8774854482
 31
0.0
  0
LINE
  5
9D
330
1F
100
AcDbEntity
  8
SLD-0
  6
Continuous
 62
   179
370
    25
100
AcDbLine
 10
326.4401629802
 20
20.8774854482
 30
0.0
 11
296.4401629802
 21
20.8774854482
 31
0.0
  0
LINE
  5
9E
330
1F
100
AcDbEntity
  8
SLD-0
  6
Continuous
 62
   179
370
    25
100
AcDbLine
 10
326.4401629802
 20
15.8774854482
 30
0.0
 11
326.4401629802
 21
20.8774854482
 31
0.0
  0
LINE
  5
9F
330
1F
100
AcDbEntity
  8
SLD-0
  6
Continuous
 62
   179
370
    25
100
AcDbLine
 10
296.4401629802
 20
15.8774854482
 30
0.0
 11
326.4401629802
 21
15.8774854482
 31
0.0
  0
LINE
  5
A0
330
1F
100
AcDbEntity
  8
SLD-0
  6
Continuous
 62
   179
370
    25
100
AcDbLine
 10
206.4401629802
 20
20.8774854482
 30
0.0
 11
206.4401629802
 21
15.8774854482
 31
0.0
  0
LINE
  5
A1
330
1F
100
AcDbEntity
  8
SLD-0
  6
Continuous
 62
   179
370
    25
100
AcDbLine
 10
236.4401629802
 20
20.8774854482
 30
0.0
 11
206.4401629802
 21
20.8774854482
 31
0.0
  0
LINE
  5
A2
330
1F
100
AcDbEntity
  8
SLD-0
  6
Continuous
 62
   179
370
    25
100
AcDbLine
 10
236.4401629802
 20
15.8774854482
 30
0.0
 11
236.4401629802
 21
20.8774854482
 31
0.0
  0
LINE
  5
A3
330
1F
100
AcDbEntity
  8
SLD-0
  6
Continuous
 62
   179
370
    25
100
AcDbLine
 10
206.4401629802
 20
15.8774854482
 30
0.0
 11
236.4401629802
 21
15.8774854482
 31
0.0
  0
LINE
  5
A4
330
1F
100
AcDbEntity
  8
SLD-0
  6
Continuous
 62
   179
370
    25
100
AcDbLine
 10
26.4401629802
 20
15.8774854482
 30
0.0
 11
56.4401629802
 21
15.8774854482
 31
0.0
  0
LINE
  5
A5
330
1F
100
AcDbEntity
  8
SLD-0
  6
Continuous
 62
   179
370
    25
100
AcDbLine
 10
26.4401629802
 20
20.8774854482
 30
0.0
 11
26.4401629802
 21
15.8774854482
 31
0.0
  0
LINE
  5
A6
330
1F
100
AcDbEntity
  8
SLD-0
  6
Continuous
 62
   179
370
    25
100
AcDbLine
 10
56.4401629802
 20
20.8774854482
 30
0.0
 11
26.4401629802
 21
20.8774854482
 31
0.0
  0
LINE
  5
A7
330
1F
100
AcDbEntity
  8
SLD-0
  6
Continuous
 62
   179
370
    25
100
AcDbLine
 10
56.4401629802
 20
15.8774854482
 30
0.0
 11
56.4401629802
 21
20.8774854482
 31
0.0
  0
LINE
  5
A8
330
1F
100
AcDbEntity
  8
SLD-0
  6
Continuous
 62
   179
370
    25
100
AcDbLine
 10
116.4401629802
 20
20.8774854482
 30
0.0
 11
116.4401629802
 21
15.8774854482
 31
0.0
  0
LINE
  5
A9
330
1F
100
AcDbEntity
  8
SLD-0
  6
Continuous
 62
   179
370
    25
100
AcDbLine
 10
146.4401629802
 20
20.8774854482
 30
0.0
 11
116.4401629802
 21
20.8774854482
 31
0.0
  0
LINE
  5
AA
330
1F
100
AcDbEntity
  8
SLD-0
  6
Continuous
 62
   179
370
    25
100
AcDbLine
 10
146.4401629802
 20
15.8774854482
 30
0.0
 11
146.4401629802
 21
20.8774854482
 31
0.0
  0
LINE
  5
AB
330
1F
100
AcDbEntity
  8
SLD-0
  6
Continuous
 62
   179
370
    25
100
AcDbLine
 10
116.4401629802
 20
15.8774854482
 30
0.0
 11
146.4401629802
 21
15.8774854482
 31
0.0
  0
LINE
  5
AC
330
1F
100
AcDbEntity
  8
SLD-0
  6
Continuous
 62
   179
370
    25
100
AcDbLine
 10
346.4401629802
 20
5.8774854482
 30
0.0
 11
346.4401629802
 21
225.8774854482
 31
0.0
  0
LINE
  5
AD
330
1F
100
AcDbEntity
  8
SLD-0
  6
Continuous
 62
   179
370
    25
100
AcDbLine
 10
346.4401629802
 20
225.8774854482
 30
0.0
 11
6.4401629802
 21
225.8774854482
 31
0.0
  0
LINE
  5
AE
330
1F
100
AcDbEntity
  8
SLD-0
  6
Continuous
 62
   179
370
    25
100
AcDbLine
 10
6.4401629802
 20
225.8774854482
 30
0.0
 11
6.4401629802
 21
5.8774854482
 31
0.0
  0
LINE
  5
AF
330
1F
100
AcDbEntity
  8
SLD-0
  6
Continuous
 62
   179
370
    25
100
AcDbLine
 10
6.4401629802
 20
5.8774854482
 30
0.0
 11
346.4401629802
 21
5.8774854482
 31
0.0
  0
LINE
  5
B0
330
1F
100
AcDbEntity
  8
SLD-0
  6
Continuous
 62
   179
370
    25
100
AcDbLine
 10
337.8658672875
 20
417.5256577416
 30
0.0
 11
332.8658672875
 21
417.5256577416
 31
0.0
  0
LINE
  5
B1
330
1F
100
AcDbEntity
  8
SLD-0
  6
Continuous
 62
   179
370
    25
100
AcDbLine
 10
337.8658672875
 20
387.5256577416
 30
0.0
 11
337.8658672875
 21
417.5256577416
 31
0.0
  0
LINE
  5
B2
330
1F
100
AcDbEntity
  8
SLD-0
  6
Continuous
 62
   179
370
    25
100
AcDbLine
 10
332.8658672875
 20
387.5256577416
 30
0.0
 11
337.8658672875
 21
387.5256577416
 31
0.0
  0
LINE
  5
B3
330
1F
100
AcDbEntity
  8
SLD-0
  6
Continuous
 62
   179
370
    25
100
AcDbLine
 10
332.8658672875
 20
417.5256577416
 30
0.0
 11
332.8658672875
 21
387.5256577416
 31
0.0
  0
LINE
  5
B4
330
1F
100
AcDbEntity
  8
SLD-0
  6
Continuous
 62
   179
370
    25
100
AcDbLine
 10
337.8658672875
 20
357.5256577416
 30
0.0
 11
332.8658672875
 21
357.5256577416
 31
0.0
  0
LINE
  5
B5
330
1F
100
AcDbEntity
  8
SLD-0
  6
Continuous
 62
   179
370
    25
100
AcDbLine
 10
337.8658672875
 20
327.5256577416
 30
0.0
 11
337.8658672875
 21
357.5256577416
 31
0.0
  0
LINE
  5
B6
330
1F
100
AcDbEntity
  8
SLD-0
  6
Continuous
 62
   179
370
    25
100
AcDbLine
 10
332.8658672875
 20
327.5256577416
 30
0.0
 11
337.8658672875
 21
327.5256577416
 31
0.0
  0
LINE
  5
B7
330
1F
100
AcDbEntity
  8
SLD-0
  6
Continuous
 62
   179
370
    25
100
AcDbLine
 10
332.8658672875
 20
357.5256577416
 30
0.0
 11
332.8658672875
 21
327.5256577416
 31
0.0
  0
LINE
  5
B8
330
1F
100
AcDbEntity
  8
SLD-0
  6
Continuous
 62
   179
370
    25
100
AcDbLine
 10
17.8658672875
 20
297.5256577416
 30
0.0
 11
17.8658672875
 21
267.5256577416
 31
0.0
  0
LINE
  5
B9
330
1F
100
AcDbEntity
  8
SLD-0
  6
Continuous
 62
   179
370
    25
100
AcDbLine
 10
22.8658672875
 20
297.5256577416
 30
0.0
 11
17.8658672875
 21
297.5256577416
 31
0.0
  0
LINE
  5
BA
330
1F
100
AcDbEntity
  8
SLD-0
  6
Continuous
 62
   179
370
    25
100
AcDbLine
 10
22.8658672875
 20
267.5256577416
 30
0.0
 11
22.8658672875
 21
297.5256577416
 31
0.0
  0
LINE
  5
BB
330
1F
100
AcDbEntity
  8
SLD-0
  6
Continuous
 62
   179
370
    25
100
AcDbLine
 10
17.8658672875
 20
267.5256577416
 30
0.0
 11
22.8658672875
 21
267.5256577416
 31
0.0
  0
LINE
  5
BC
330
1F
100
AcDbEntity
  8
SLD-0
  6
Continuous
 62
   179
370
    25
100
AcDbLine
 10
337.8658672875
 20
297.5256577416
 30
0.0
 11
332.8658672875
 21
297.5256577416
 31
0.0
  0
LINE
  5
BD
330
1F
100
AcDbEntity
  8
SLD-0
  6
Continuous
 62
   179
370
    25
100
AcDbLine
 10
337.8658672875
 20
267.5256577416
 30
0.0
 11
337.8658672875
 21
297.5256577416
 31
0.0
  0
LINE
  5
BE
330
1F
100
AcDbEntity
  8
SLD-0
  6
Continuous
 62
   179
370
    25
100
AcDbLine
 10
332.8658672875
 20
267.5256577416
 30
0.0
 11
337.8658672875
 21
267.5256577416
 31
0.0
  0
LINE
  5
BF
330
1F
100
AcDbEntity
  8
SLD-0
  6
Continuous
 62
   179
370
    25
100
AcDbLine
 10
332.8658672875
 20
297.5256577416
 30
0.0
 11
332.8658672875
 21
267.5256577416
 31
0.0
  0
LINE
  5
C0
330
1F
100
AcDbEntity
  8
SLD-0
  6
Continuous
 62
   179
370
    25
100
AcDbLine
 10
17.8658672875
 20
417.5256577416
 30
0.0
 11
17.8658672875
 21
387.5256577416
 31
0.0
  0
LINE
  5
C1
330
1F
100
AcDbEntity
  8
SLD-0
  6
Continuous
 62
   179
370
    25
100
AcDbLine
 10
22.8658672875
 20
417.5256577416
 30
0.0
 11
17.8658672875
 21
417.5256577416
 31
0.0
  0
LINE
  5
C2
330
1F
100
AcDbEntity
  8
SLD-0
  6
Continuous
 62
   179
370
    25
100
AcDbLine
 10
22.8658672875
 20
387.5256577416
 30
0.0
 11
22.8658672875
 21
417.5256577416
 31
0.0
  0
LINE
  5
C3
330
1F
100
AcDbEntity
  8
SLD-0
  6
Continuous
 62
   179
370
    25
100
AcDbLine
 10
17.8658672875
 20
387.5256577416
 30
0.0
 11
22.8658672875
 21
387.5256577416
 31
0.0
  0
LINE
  5
C4
330
1F
100
AcDbEntity
  8
SLD-0
  6
Continuous
 62
   179
370
    25
100
AcDbLine
 10
22.8658672875
 20
357.5256577416
 30
0.0
 11
17.8658672875
 21
357.5256577416
 31
0.0
  0
LINE
  5
C5
330
1F
100
AcDbEntity
  8
SLD-0
  6
Continuous
 62
   179
370
    25
100
AcDbLine
 10
22.8658672875
 20
327.5256577416
 30
0.0
 11
22.8658672875
 21
357.5256577416
 31
0.0
  0
LINE
  5
C6
330
1F
100
AcDbEntity
  8
SLD-0
  6
Continuous
 62
   179
370
    25
100
AcDbLine
 10
17.8658672875
 20
327.5256577416
 30
0.0
 11
22.8658672875
 21
327.5256577416
 31
0.0
  0
LINE
  5
C7
330
1F
100
AcDbEntity
  8
SLD-0
  6
Continuous
 62
   179
370
    25
100
AcDbLine
 10
17.8658672875
 20
357.5256577416
 30
0.0
 11
17.8658672875
 21
327.5256577416
 31
0.0
  0
LINE
  5
C8
330
1F
100
AcDbEntity
  8
SLD-0
  6
Continuous
 62
   179
370
    25
100
AcDbLine
 10
27.8658672875
 20
437.5256577416
 30
0.0
 11
57.8658672875
 21
437.5256577416
 31
0.0
  0
LINE
  5
C9
330
1F
100
AcDbEntity
  8
SLD-0
  6
Continuous
 62
   179
370
    25
100
AcDbLine
 10
27.8658672875
 20
442.5256577416
 30
0.0
 11
27.8658672875
 21
437.5256577416
 31
0.0
  0
LINE
  5
CA
330
1F
100
AcDbEntity
  8
SLD-0
  6
Continuous
 62
   179
370
    25
100
AcDbLine
 10
57.8658672875
 20
442.5256577416
 30
0.0
 11
27.8658672875
 21
442.5256577416
 31
0.0
  0
LINE
  5
CB
330
1F
100
AcDbEntity
  8
SLD-0
  6
Continuous
 62
   179
370
    25
100
AcDbLine
 10
57.8658672875
 20
437.5256577416
 30
0.0
 11
57.8658672875
 21
442.5256577416
 31
0.0
  0
LINE
  5
CC
330
1F
100
AcDbEntity
  8
SLD-0
  6
Continuous
 62
   179
370
    25
100
AcDbLine
 10
117.8658672875
 20
437.5256577416
 30
0.0
 11
147.8658672875
 21
437.5256577416
 31
0.0
  0
LINE
  5
CD
330
1F
100
AcDbEntity
  8
SLD-0
  6
Continuous
 62
   179
370
    25
100
AcDbLine
 10
117.8658672875
 20
442.5256577416
 30
0.0
 11
117.8658672875
 21
437.5256577416
 31
0.0
  0
LINE
  5
CE
330
1F
100
AcDbEntity
  8
SLD-0
  6
Continuous
 62
   179
370
    25
100
AcDbLine
 10
147.8658672875
 20
442.5256577416
 30
0.0
 11
117.8658672875
 21
442.5256577416
 31
0.0
  0
LINE
  5
CF
330
1F
100
AcDbEntity
  8
SLD-0
  6
Continuous
 62
   179
370
    25
100
AcDbLine
 10
147.8658672875
 20
437.5256577416
 30
0.0
 11
147.8658672875
 21
442.5256577416
 31
0.0
  0
LINE
  5
D0
330
1F
100
AcDbEntity
  8
SLD-0
  6
Continuous
 62
   179
370
    25
100
AcDbLine
 10
207.8658672875
 20
437.5256577416
 30
0.0
 11
237.8658672875
 21
437.5256577416
 31
0.0
  0
LINE
  5
D1
330
1F
100
AcDbEntity
  8
SLD-0
  6
Continuous
 62
   179
370
    25
100
AcDbLine
 10
207.8658672875
 20
442.5256577416
 30
0.0
 11
207.8658672875
 21
437.5256577416
 31
0.0
  0
LINE
  5
D2
330
1F
100
AcDbEntity
  8
SLD-0
  6
Continuous
 62
   179
370
    25
100
AcDbLine
 10
237.8658672875
 20
442.5256577416
 30
0.0
 11
207.8658672875
 21
442.5256577416
 31
0.0
  0
LINE
  5
D3
330
1F
100
AcDbEntity
  8
SLD-0
  6
Continuous
 62
   179
370
    25
100
AcDbLine
 10
237.8658672875
 20
437.5256577416
 30
0.0
 11
237.8658672875
 21
442.5256577416
 31
0.0
  0
LINE
  5
D4
330
1F
100
AcDbEntity
  8
SLD-0
  6
Continuous
 62
   179
370
    25
100
AcDbLine
 10
297.8658672875
 20
247.5256577416
 30
0.0
 11
297.8658672875
 21
242.5256577416
 31
0.0
  0
LINE
  5
D5
330
1F
100
AcDbEntity
  8
SLD-0
  6
Continuous
 62
   179
370
    25
100
AcDbLine
 10
327.8658672875
 20
247.5256577416
 30
0.0
 11
297.8658672875
 21
247.5256577416
 31
0.0
  0
LINE
  5
D6
330
1F
100
AcDbEntity
  8
SLD-0
  6
Continuous
 62
   179
370
    25
100
AcDbLine
 10
327.8658672875
 20
242.5256577416
 30
0.0
 11
327.8658672875
 21
247.5256577416
 31
0.0
  0
LINE
  5
D7
330
1F
100
AcDbEntity
  8
SLD-0
  6
Continuous
 62
   179
370
    25
100
AcDbLine
 10
297.8658672875
 20
242.5256577416
 30
0.0
 11
327.8658672875
 21
242.5256577416
 31
0.0
  0
LINE
  5
D8
330
1F
100
AcDbEntity
  8
SLD-0
  6
Continuous
 62
   179
370
    25
100
AcDbLine
 10
207.8658672875
 20
247.5256577416
 30
0.0
 11
207.8658672875
 21
242.5256577416
 31
0.0
  0
LINE
  5
D9
330
1F
100
AcDbEntity
  8
SLD-0
  6
Continuous
 62
   179
370
    25
100
AcDbLine
 10
237.8658672875
 20
247.5256577416
 30
0.0
 11
207.8658672875
 21
247.5256577416
 31
0.0
  0
LINE
  5
DA
330
1F
100
AcDbEntity
  8
SLD-0
  6
Continuous
 62
   179
370
    25
100
AcDbLine
 10
237.8658672875
 20
242.5256577416
 30
0.0
 11
237.8658672875
 21
247.5256577416
 31
0.0
  0
LINE
  5
DB
330
1F
100
AcDbEntity
  8
SLD-0
  6
Continuous
 62
   179
370
    25
100
AcDbLine
 10
207.8658672875
 20
242.5256577416
 30
0.0
 11
237.8658672875
 21
242.5256577416
 31
0.0
  0
LINE
  5
DC
330
1F
100
AcDbEntity
  8
SLD-0
  6
Continuous
 62
   179
370
    25
100
AcDbLine
 10
297.8658672875
 20
437.5256577416
 30
0.0
 11
327.8658672875
 21
437.5256577416
 31
0.0
  0
LINE
  5
DD
330
1F
100
AcDbEntity
  8
SLD-0
  6
Continuous
 62
   179
370
    25
100
AcDbLine
 10
297.8658672875
 20
442.5256577416
 30
0.0
 11
297.8658672875
 21
437.5256577416
 31
0.0
  0
LINE
  5
DE
330
1F
100
AcDbEntity
  8
SLD-0
  6
Continuous
 62
   179
370
    25
100
AcDbLine
 10
327.8658672875
 20
442.5256577416
 30
0.0
 11
297.8658672875
 21
442.5256577416
 31
0.0
  0
LINE
  5
DF
330
1F
100
AcDbEntity
  8
SLD-0
  6
Continuous
 62
   179
370
    25
100
AcDbLine
 10
327.8658672875
 20
437.5256577416
 30
0.0
 11
327.8658672875
 21
442.5256577416
 31
0.0
  0
LINE
  5
E0
330
1F
100
AcDbEntity
  8
SLD-0
  6
Continuous
 62
   179
370
    25
100
AcDbLine
 10
117.8658672875
 20
247.5256577416
 30
0.0
 11
117.8658672875
 21
242.5256577416
 31
0.0
  0
LINE
  5
E1
330
1F
100
AcDbEntity
  8
SLD-0
  6
Continuous
 62
   179
370
    25
100
AcDbLine
 10
147.8658672875
 20
247.5256577416
 30
0.0
 11
117.8658672875
 21
247.5256577416
 31
0.0
  0
LINE
  5
E2
330
1F
100
AcDbEntity
  8
SLD-0
  6
Continuous
 62
   179
370
    25
100
AcDbLine
 10
147.8658672875
 20
242.5256577416
 30
0.0
 11
147.8658672875
 21
247.5256577416
 31
0.0
  0
LINE
  5
E3
330
1F
100
AcDbEntity
  8
SLD-0
  6
Continuous
 62
   179
370
    25
100
AcDbLine
 10
117.8658672875
 20
242.5256577416
 30
0.0
 11
147.8658672875
 21
242.5256577416
 31
0.0
  0
LINE
  5
E4
330
1F
100
AcDbEntity
  8
SLD-0
  6
Continuous
 62
   179
370
    25
100
AcDbLine
 10
27.8658672875
 20
242.5256577416
 30
0.0
 11
57.8658672875
 21
242.5256577416
 31
0.0
  0
LINE
  5
E5
330
1F
100
AcDbEntity
  8
SLD-0
  6
Continuous
 62
   179
370
    25
100
AcDbLine
 10
27.8658672875
 20
247.5256577416
 30
0.0
 11
27.8658672875
 21
242.5256577416
 31
0.0
  0
LINE
  5
E6
330
1F
100
AcDbEntity
  8
SLD-0
  6
Continuous
 62
   179
370
    25
100
AcDbLine
 10
57.8658672875
 20
247.5256577416
 30
0.0
 11
27.8658672875
 21
247.5256577416
 31
0.0
  0
LINE
  5
E7
330
1F
100
AcDbEntity
  8
SLD-0
  6
Continuous
 62
   179
370
    25
100
AcDbLine
 10
57.8658672875
 20
242.5256577416
 30
0.0
 11
57.8658672875
 21
247.5256577416
 31
0.0
  0
LINE
  5
E8
330
1F
100
AcDbEntity
  8
SLD-0
  6
Continuous
 62
   179
370
    25
100
AcDbLine
 10
347.8658672875
 20
232.5256577416
 30
0.0
 11
347.8658672875
 21
452.5256577416
 31
0.0
  0
LINE
  5
E9
330
1F
100
AcDbEntity
  8
SLD-0
  6
Continuous
 62
   179
370
    25
100
AcDbLine
 10
347.8658672875
 20
452.5256577416
 30
0.0
 11
7.8658672875
 21
452.5256577416
 31
0.0
  0
LINE
  5
EA
330
1F
100
AcDbEntity
  8
SLD-0
  6
Continuous
 62
   179
370
    25
100
AcDbLine
 10
7.8658672875
 20
452.5256577416
 30
0.0
 11
7.8658672875
 21
232.5256577416
 31
0.0
  0
LINE
  5
EB
330
1F
100
AcDbEntity
  8
SLD-0
  6
Continuous
 62
   179
370
    25
100
AcDbLine
 10
7.8658672875
 20
232.5256577416
 30
0.0
 11
347.8658672875
 21
232.5256577416
 31
0.0
  0
LINE
  5
EC
330
1F
100
AcDbEntity
  8
SLD-0
  6
Continuous
 62
   179
370
    25
100
AcDbLine
 10
135.028661234
 20
574.5480558789
 30
0.0
 11
165.028661234
 21
574.5480558789
 31
0.0
  0
LINE
  5
ED
330
1F
100
AcDbEntity
  8
SLD-0
  6
Continuous
 62
   179
370
    25
100
AcDbLine
 10
135.028661234
 20
579.5480558789
 30
0.0
 11
135.028661234
 21
574.5480558789
 31
0.0
  0
LINE
  5
EE
330
1F
100
AcDbEntity
  8
SLD-0
  6
Continuous
 62
   179
370
    25
100
AcDbLine
 10
135.028661234
 20
579.5480558789
 30
0.0
 11
105.028661234
 21
579.5480558789
 31
0.0
  0
LINE
  5
EF
330
1F
100
AcDbEntity
  8
SLD-0
  6
Continuous
 62
   179
370
    25
100
AcDbLine
 10
105.028661234
 20
574.5480558789
 30
0.0
 11
105.028661234
 21
579.5480558789
 31
0.0
  0
LINE
  5
F0
330
1F
100
AcDbEntity
  8
SLD-0
  6
Continuous
 62
   179
370
    25
100
AcDbLine
 10
75.028661234
 20
574.5480558789
 30
0.0
 11
105.028661234
 21
574.5480558789
 31
0.0
  0
LINE
  5
F1
330
1F
100
AcDbEntity
  8
SLD-0
  6
Continuous
 62
   179
370
    25
100
AcDbLine
 10
75.028661234
 20
579.5480558789
 30
0.0
 11
75.028661234
 21
574.5480558789
 31
0.0
  0
LINE
  5
F2
330
1F
100
AcDbEntity
  8
SLD-0
  6
Continuous
 62
   179
370
    25
100
AcDbLine
 10
75.028661234
 20
579.5480558789
 30
0.0
 11
45.028661234
 21
579.5480558789
 31
0.0
  0
LINE
  5
F3
330
1F
100
AcDbEntity
  8
SLD-0
  6
Continuous
 62
   179
370
    25
100
AcDbLine
 10
45.028661234
 20
574.5480558789
 30
0.0
 11
45.028661234
 21
579.5480558789
 31
0.0
  0
LINE
  5
F4
330
1F
100
AcDbEntity
  8
SLD-0
  6
Continuous
 62
   179
370
    25
100
AcDbLine
 10
15.028661234
 20
574.5480558789
 30
0.0
 11
45.028661234
 21
574.5480558789
 31
0.0
  0
LINE
  5
F5
330
1F
100
AcDbEntity
  8
SLD-0
  6
Continuous
 62
   179
370
    25
100
AcDbLine
 10
15.028661234
 20
574.5480558789
 30
0.0
 11
15.028661234
 21
464.5480558789
 31
0.0
  0
LINE
  5
F6
330
1F
100
AcDbEntity
  8
SLD-0
  6
Continuous
 62
   179
370
    25
100
AcDbLine
 10
45.028661234
 20
464.5480558789
 30
0.0
 11
15.028661234
 21
464.5480558789
 31
0.0
  0
LINE
  5
F7
330
1F
100
AcDbEntity
  8
SLD-0
  6
Continuous
 62
   179
370
    25
100
AcDbLine
 10
45.028661234
 20
459.5480558789
 30
0.0
 11
45.028661234
 21
464.5480558789
 31
0.0
  0
LINE
  5
F8
330
1F
100
AcDbEntity
  8
SLD-0
  6
Continuous
 62
   179
370
    25
100
AcDbLine
 10
45.028661234
 20
459.5480558789
 30
0.0
 11
75.028661234
 21
459.5480558789
 31
0.0
  0
LINE
  5
F9
330
1F
100
AcDbEntity
  8
SLD-0
  6
Continuous
 62
   179
370
    25
100
AcDbLine
 10
75.028661234
 20
464.5480558789
 30
0.0
 11
75.028661234
 21
459.5480558789
 31
0.0
  0
LINE
  5
FA
330
1F
100
AcDbEntity
  8
SLD-0
  6
Continuous
 62
   179
370
    25
100
AcDbLine
 10
105.028661234
 20
464.5480558789
 30
0.0
 11
75.028661234
 21
464.5480558789
 31
0.0
  0
LINE
  5
FB
330
1F
100
AcDbEntity
  8
SLD-0
  6
Continuous
 62
   179
370
    25
100
AcDbLine
 10
105.028661234
 20
459.5480558789
 30
0.0
 11
105.028661234
 21
464.5480558789
 31
0.0
  0
LINE
  5
FC
330
1F
100
AcDbEntity
  8
SLD-0
  6
Continuous
 62
   179
370
    25
100
AcDbLine
 10
105.028661234
 20
459.5480558789
 30
0.0
 11
135.028661234
 21
459.5480558789
 31
0.0
  0
LINE
  5
FD
330
1F
100
AcDbEntity
  8
SLD-0
  6
Continuous
 62
   179
370
    25
100
AcDbLine
 10
135.028661234
 20
464.5480558789
 30
0.0
 11
135.028661234
 21
459.5480558789
 31
0.0
  0
LINE
  5
FE
330
1F
100
AcDbEntity
  8
SLD-0
  6
Continuous
 62
   179
370
    25
100
AcDbLine
 10
165.028661234
 20
464.5480558789
 30
0.0
 11
135.028661234
 21
464.5480558789
 31
0.0
  0
LINE
  5
FF
330
1F
100
AcDbEntity
  8
SLD-0
  6
Continuous
 62
   179
370
    25
100
AcDbLine
 10
165.028661234
 20
459.5480558789
 30
0.0
 11
165.028661234
 21
464.5480558789
 31
0.0
  0
LINE
  5
100
330
1F
100
AcDbEntity
  8
SLD-0
  6
Continuous
 62
   179
370
    25
100
AcDbLine
 10
165.028661234
 20
459.5480558789
 30
0.0
 11
195.028661234
 21
459.5480558789
 31
0.0
  0
LINE
  5
101
330
1F
100
AcDbEntity
  8
SLD-0
  6
Continuous
 62
   179
370
    25
100
AcDbLine
 10
195.028661234
 20
464.5480558789
 30
0.0
 11
195.028661234
 21
459.5480558789
 31
0.0
  0
LINE
  5
102
330
1F
100
AcDbEntity
  8
SLD-0
  6
Continuous
 62
   179
370
    25
100
AcDbLine
 10
225.028661234
 20
464.5480558789
 30
0.0
 11
195.028661234
 21
464.5480558789
 31
0.0
  0
LINE
  5
103
330
1F
100
AcDbEntity
  8
SLD-0
  6
Continuous
 62
   179
370
    25
100
AcDbLine
 10
225.028661234
 20
464.5480558789
 30
0.0
 11
225.028661234
 21
574.5480558789
 31
0.0
  0
LINE
  5
104
330
1F
100
AcDbEntity
  8
SLD-0
  6
Continuous
 62
   179
370
    25
100
AcDbLine
 10
195.028661234
 20
574.5480558789
 30
0.0
 11
225.028661234
 21
574.5480558789
 31
0.0
  0
LINE
  5
105
330
1F
100
AcDbEntity
  8
SLD-0
  6
Continuous
 62
   179
370
    25
100
AcDbLine
 10
195.028661234
 20
579.5480558789
 30
0.0
 11
195.028661234
 21
574.5480558789
 31
0.0
  0
LINE
  5
106
330
1F
100
AcDbEntity
  8
SLD-0
  6
Continuous
 62
   179
370
    25
100
AcDbLine
 10
195.028661234
 20
579.5480558789
 30
0.0
 11
165.028661234
 21
579.5480558789
 31
0.0
  0
LINE
  5
107
330
1F
100
AcDbEntity
  8
SLD-0
  6
Continuous
 62
   179
370
    25
100
AcDbLine
 10
165.028661234
 20
574.5480558789
 30
0.0
 11
165.028661234
 21
579.5480558789
 31
0.0
  0
LINE
  5
108
330
1F
100
AcDbEntity
  8
SLD-0
  6
Continuous
 62
   179
370
    25
100
AcDbLine
 10
295.0921769499
 20
580.9587194412
 30
0.0
 11
265.0921769499
 21
580.9587194412
 31
0.0
  0
LINE
  5
109
330
1F
100
AcDbEntity
  8
SLD-0
  6
Continuous
 62
   179
370
    25
100
AcDbLine
 10
265.0921769499
 20
575.9587194412
 30
0.0
 11
265.0921769499
 21
580.9587194412
 31
0.0
  0
LINE
  5
10A
330
1F
100
AcDbEntity
  8
SLD-0
  6
Continuous
 62
   179
370
    25
100
AcDbLine
 10
235.0921769499
 20
575.9587194412
 30
0.0
 11
265.0921769499
 21
575.9587194412
 31
0.0
  0
LINE
  5
10B
330
1F
100
AcDbEntity
  8
SLD-0
  6
Continuous
 62
   179
370
    25
100
AcDbLine
 10
235.0921769499
 20
575.9587194412
 30
0.0
 11
235.0921769499
 21
465.9587194412
 31
0.0
  0
LINE
  5
10C
330
1F
100
AcDbEntity
  8
SLD-0
  6
Continuous
 62
   179
370
    25
100
AcDbLine
 10
265.0921769499
 20
465.9587194412
 30
0.0
 11
235.0921769499
 21
465.9587194412
 31
0.0
  0
LINE
  5
10D
330
1F
100
AcDbEntity
  8
SLD-0
  6
Continuous
 62
   179
370
    25
100
AcDbLine
 10
265.0921769499
 20
460.9587194412
 30
0.0
 11
265.0921769499
 21
465.9587194412
 31
0.0
  0
LINE
  5
10E
330
1F
100
AcDbEntity
  8
SLD-0
  6
Continuous
 62
   179
370
    25
100
AcDbLine
 10
265.0921769499
 20
460.9587194412
 30
0.0
 11
295.0921769499
 21
460.9587194412
 31
0.0
  0
LINE
  5
10F
330
1F
100
AcDbEntity
  8
SLD-0
  6
Continuous
 62
   179
370
    25
100
AcDbLine
 10
295.0921769499
 20
465.9587194412
 30
0.0
 11
295.0921769499
 21
460.9587194412
 31
0.0
  0
LINE
  5
110
330
1F
100
AcDbEntity
  8
SLD-0
  6
Continuous
 62
   179
370
    25
100
AcDbLine
 10
325.0921769499
 20
465.9587194412
 30
0.0
 11
295.0921769499
 21
465.9587194412
 31
0.0
  0
LINE
  5
111
330
1F
100
AcDbEntity
  8
SLD-0
  6
Continuous
 62
   179
370
    25
100
AcDbLine
 10
325.0921769499
 20
460.9587194412
 30
0.0
 11
325.0921769499
 21
465.9587194412
 31
0.0
  0
LINE
  5
112
330
1F
100
AcDbEntity
  8
SLD-0
  6
Continuous
 62
   179
370
    25
100
AcDbLine
 10
325.0921769499
 20
460.9587194412
 30
0.0
 11
355.0921769499
 21
460.9587194412
 31
0.0
  0
LINE
  5
113
330
1F
100
AcDbEntity
  8
SLD-0
  6
Continuous
 62
   179
370
    25
100
AcDbLine
 10
355.0921769499
 20
465.9587194412
 30
0.0
 11
355.0921769499
 21
460.9587194412
 31
0.0
  0
LINE
  5
114
330
1F
100
AcDbEntity
  8
SLD-0
  6
Continuous
 62
   179
370
    25
100
AcDbLine
 10
385.0921769499
 20
465.9587194412
 30
0.0
 11
355.0921769499
 21
465.9587194412
 31
0.0
  0
LINE
  5
115
330
1F
100
AcDbEntity
  8
SLD-0
  6
Continuous
 62
   179
370
    25
100
AcDbLine
 10
385.0921769499
 20
460.9587194412
 30
0.0
 11
385.0921769499
 21
465.9587194412
 31
0.0
  0
LINE
  5
116
330
1F
100
AcDbEntity
  8
SLD-0
  6
Continuous
 62
   179
370
    25
100
AcDbLine
 10
385.0921769499
 20
460.9587194412
 30
0.0
 11
415.0921769499
 21
460.9587194412
 31
0.0
  0
LINE
  5
117
330
1F
100
AcDbEntity
  8
SLD-0
  6
Continuous
 62
   179
370
    25
100
AcDbLine
 10
415.0921769499
 20
465.9587194412
 30
0.0
 11
415.0921769499
 21
460.9587194412
 31
0.0
  0
LINE
  5
118
330
1F
100
AcDbEntity
  8
SLD-0
  6
Continuous
 62
   179
370
    25
100
AcDbLine
 10
445.0921769499
 20
465.9587194412
 30
0.0
 11
415.0921769499
 21
465.9587194412
 31
0.0
  0
LINE
  5
119
330
1F
100
AcDbEntity
  8
SLD-0
  6
Continuous
 62
   179
370
    25
100
AcDbLine
 10
445.0921769499
 20
465.9587194412
 30
0.0
 11
445.0921769499
 21
575.9587194412
 31
0.0
  0
LINE
  5
11A
330
1F
100
AcDbEntity
  8
SLD-0
  6
Continuous
 62
   179
370
    25
100
AcDbLine
 10
415.0921769499
 20
575.9587194412
 30
0.0
 11
445.0921769499
 21
575.9587194412
 31
0.0
  0
LINE
  5
11B
330
1F
100
AcDbEntity
  8
SLD-0
  6
Continuous
 62
   179
370
    25
100
AcDbLine
 10
415.0921769499
 20
580.9587194412
 30
0.0
 11
415.0921769499
 21
575.9587194412
 31
0.0
  0
LINE
  5
11C
330
1F
100
AcDbEntity
  8
SLD-0
  6
Continuous
 62
   179
370
    25
100
AcDbLine
 10
415.0921769499
 20
580.9587194412
 30
0.0
 11
385.0921769499
 21
580.9587194412
 31
0.0
  0
LINE
  5
11D
330
1F
100
AcDbEntity
  8
SLD-0
  6
Continuous
 62
   179
370
    25
100
AcDbLine
 10
385.0921769499
 20
575.9587194412
 30
0.0
 11
385.0921769499
 21
580.9587194412
 31
0.0
  0
LINE
  5
11E
330
1F
100
AcDbEntity
  8
SLD-0
  6
Continuous
 62
   179
370
    25
100
AcDbLine
 10
355.0921769499
 20
575.9587194412
 30
0.0
 11
385.0921769499
 21
575.9587194412
 31
0.0
  0
LINE
  5
11F
330
1F
100
AcDbEntity
  8
SLD-0
  6
Continuous
 62
   179
370
    25
100
AcDbLine
 10
355.0921769499
 20
580.9587194412
 30
0.0
 11
355.0921769499
 21
575.9587194412
 31
0.0
  0
LINE
  5
120
330
1F
100
AcDbEntity
  8
SLD-0
  6
Continuous
 62
   179
370
    25
100
AcDbLine
 10
355.0921769499
 20
580.9587194412
 30
0.0
 11
325.0921769499
 21
580.9587194412
 31
0.0
  0
LINE
  5
121
330
1F
100
AcDbEntity
  8
SLD-0
  6
Continuous
 62
   179
370
    25
100
AcDbLine
 10
325.0921769499
 20
575.9587194412
 30
0.0
 11
325.0921769499
 21
580.9587194412
 31
0.0
  0
LINE
  5
122
330
1F
100
AcDbEntity
  8
SLD-0
  6
Continuous
 62
   179
370
    25
100
AcDbLine
 10
295.0921769499
 20
575.9587194412
 30
0.0
 11
325.0921769499
 21
575.9587194412
 31
0.0
  0
LINE
  5
123
330
1F
100
AcDbEntity
  8
SLD-0
  6
Continuous
 62
   179
370
    25
100
AcDbLine
 10
295.0921769499
 20
580.9587194412
 30
0.0
 11
295.0921769499
 21
575.9587194412
 31
0.0
  0
LINE
  5
124
330
1F
100
AcDbEntity
  8
SLD-0
  6
Continuous
 62
   179
370
    25
100
AcDbLine
 10
397.4597206054
 20
293.0897555297
 30
0.0
 11
392.4597206054
 21
293.0897555297
 31
0.0
  0
LINE
  5
125
330
1F
100
AcDbEntity
  8
SLD-0
  6
Continuous
 62
   179
370
    25
100
AcDbLine
 10
397.4597206054
 20
288.0897555297
 30
0.0
 11
397.4597206054
 21
293.0897555297
 31
0.0
  0
LINE
  5
126
330
1F
100
AcDbEntity
  8
SLD-0
  6
Continuous
 62
   179
370
    25
100
AcDbLine
 10
397.4597206054
 20
288.0897555297
 30
0.0
 11
427.4597206054
 21
288.0897555297
 31
0.0
  0
LINE
  5
127
330
1F
100
AcDbEntity
  8
SLD-0
  6
Continuous
 62
   179
370
    25
100
AcDbLine
 10
427.4597206054
 20
293.0897555297
 30
0.0
 11
427.4597206054
 21
288.0897555297
 31
0.0
  0
LINE
  5
128
330
1F
100
AcDbEntity
  8
SLD-0
  6
Continuous
 62
   179
370
    25
100
AcDbLine
 10
487.4597206054
 20
293.0897555297
 30
0.0
 11
427.4597206054
 21
293.0897555297
 31
0.0
  0
LINE
  5
129
330
1F
100
AcDbEntity
  8
SLD-0
  6
Continuous
 62
   179
370
    25
100
AcDbLine
 10
487.4597206054
 20
288.0897555297
 30
0.0
 11
487.4597206054
 21
293.0897555297
 31
0.0
  0
LINE
  5
12A
330
1F
100
AcDbEntity
  8
SLD-0
  6
Continuous
 62
   179
370
    25
100
AcDbLine
 10
487.4597206054
 20
288.0897555297
 30
0.0
 11
517.4597206054
 21
288.0897555297
 31
0.0
  0
LINE
  5
12B
330
1F
100
AcDbEntity
  8
SLD-0
  6
Continuous
 62
   179
370
    25
100
AcDbLine
 10
517.4597206054
 20
293.0897555297
 30
0.0
 11
517.4597206054
 21
288.0897555297
 31
0.0
  0
LINE
  5
12C
330
1F
100
AcDbEntity
  8
SLD-0
  6
Continuous
 62
   179
370
    25
100
AcDbLine
 10
577.4597206054
 20
293.0897555297
 30
0.0
 11
517.4597206054
 21
293.0897555297
 31
0.0
  0
LINE
  5
12D
330
1F
100
AcDbEntity
  8
SLD-0
  6
Continuous
 62
   179
370
    25
100
AcDbLine
 10
577.4597206054
 20
288.0897555297
 30
0.0
 11
577.4597206054
 21
293.0897555297
 31
0.0
  0
LINE
  5
12E
330
1F
100
AcDbEntity
  8
SLD-0
  6
Continuous
 62
   179
370
    25
100
AcDbLine
 10
577.4597206054
 20
288.0897555297
 30
0.0
 11
607.4597206054
 21
288.0897555297
 31
0.0
  0
LINE
  5
12F
330
1F
100
AcDbEntity
  8
SLD-0
  6
Continuous
 62
   179
370
    25
100
AcDbLine
 10
607.4597206054
 20
293.0897555297
 30
0.0
 11
607.4597206054
 21
288.0897555297
 31
0.0
  0
LINE
  5
130
330
1F
100
AcDbEntity
  8
SLD-0
  6
Continuous
 62
   179
370
    25
100
AcDbLine
 10
667.4597206054
 20
293.0897555297
 30
0.0
 11
607.4597206054
 21
293.0897555297
 31
0.0
  0
LINE
  5
131
330
1F
100
AcDbEntity
  8
SLD-0
  6
Continuous
 62
   179
370
    25
100
AcDbLine
 10
667.4597206054
 20
288.0897555297
 30
0.0
 11
667.4597206054
 21
293.0897555297
 31
0.0
  0
LINE
  5
132
330
1F
100
AcDbEntity
  8
SLD-0
  6
Continuous
 62
   179
370
    25
100
AcDbLine
 10
667.4597206054
 20
288.0897555297
 30
0.0
 11
697.4597206054
 21
288.0897555297
 31
0.0
  0
LINE
  5
133
330
1F
100
AcDbEntity
  8
SLD-0
  6
Continuous
 62
   179
370
    25
100
AcDbLine
 10
697.4597206054
 20
293.0897555297
 30
0.0
 11
697.4597206054
 21
288.0897555297
 31
0.0
  0
LINE
  5
134
330
1F
100
AcDbEntity
  8
SLD-0
  6
Continuous
 62
   179
370
    25
100
AcDbLine
 10
697.4597206054
 20
293.0897555297
 30
0.0
 11
702.4597206054
 21
293.0897555297
 31
0.0
  0
LINE
  5
135
330
1F
100
AcDbEntity
  8
SLD-0
  6
Continuous
 62
   179
370
    25
100
AcDbLine
 10
702.4597206054
 20
293.0897555297
 30
0.0
 11
702.4597206054
 21
403.0897555297
 31
0.0
  0
LINE
  5
136
330
1F
100
AcDbEntity
  8
SLD-0
  6
Continuous
 62
   179
370
    25
100
AcDbLine
 10
697.4597206054
 20
403.0897555297
 30
0.0
 11
702.4597206054
 21
403.0897555297
 31
0.0
  0
LINE
  5
137
330
1F
100
AcDbEntity
  8
SLD-0
  6
Continuous
 62
   179
370
    25
100
AcDbLine
 10
697.4597206054
 20
408.0897555297
 30
0.0
 11
697.4597206054
 21
403.0897555297
 31
0.0
  0
LINE
  5
138
330
1F
100
AcDbEntity
  8
SLD-0
  6
Continuous
 62
   179
370
    25
100
AcDbLine
 10
697.4597206054
 20
408.0897555297
 30
0.0
 11
667.4597206054
 21
408.0897555297
 31
0.0
  0
LINE
  5
139
330
1F
100
AcDbEntity
  8
SLD-0
  6
Continuous
 62
   179
370
    25
100
AcDbLine
 10
667.4597206054
 20
403.0897555297
 30
0.0
 11
667.4597206054
 21
408.0897555297
 31
0.0
  0
LINE
  5
13A
330
1F
100
AcDbEntity
  8
SLD-0
  6
Continuous
 62
   179
370
    25
100
AcDbLine
 10
607.4597206054
 20
403.0897555297
 30
0.0
 11
667.4597206054
 21
403.0897555297
 31
0.0
  0
LINE
  5
13B
330
1F
100
AcDbEntity
  8
SLD-0
  6
Continuous
 62
   179
370
    25
100
AcDbLine
 10
607.4597206054
 20
408.0897555297
 30
0.0
 11
607.4597206054
 21
403.0897555297
 31
0.0
  0
LINE
  5
13C
330
1F
100
AcDbEntity
  8
SLD-0
  6
Continuous
 62
   179
370
    25
100
AcDbLine
 10
607.4597206054
 20
408.0897555297
 30
0.0
 11
577.4597206054
 21
408.0897555297
 31
0.0
  0
LINE
  5
13D
330
1F
100
AcDbEntity
  8
SLD-0
  6
Continuous
 62
   179
370
    25
100
AcDbLine
 10
577.4597206054
 20
403.0897555297
 30
0.0
 11
577.4597206054
 21
408.0897555297
 31
0.0
  0
LINE
  5
13E
330
1F
100
AcDbEntity
  8
SLD-0
  6
Continuous
 62
   179
370
    25
100
AcDbLine
 10
517.4597206054
 20
403.0897555297
 30
0.0
 11
577.4597206054
 21
403.0897555297
 31
0.0
  0
LINE
  5
13F
330
1F
100
AcDbEntity
  8
SLD-0
  6
Continuous
 62
   179
370
    25
100
AcDbLine
 10
517.4597206054
 20
408.0897555297
 30
0.0
 11
517.4597206054
 21
403.0897555297
 31
0.0
  0
LINE
  5
140
330
1F
100
AcDbEntity
  8
SLD-0
  6
Continuous
 62
   179
370
    25
100
AcDbLine
 10
517.4597206054
 20
408.0897555297
 30
0.0
 11
487.4597206054
 21
408.0897555297
 31
0.0
  0
LINE
  5
141
330
1F
100
AcDbEntity
  8
SLD-0
  6
Continuous
 62
   179
370
    25
100
AcDbLine
 10
487.4597206054
 20
403.0897555297
 30
0.0
 11
487.4597206054
 21
408.0897555297
 31
0.0
  0
LINE
  5
142
330
1F
100
AcDbEntity
  8
SLD-0
  6
Continuous
 62
   179
370
    25
100
AcDbLine
 10
427.4597206054
 20
403.0897555297
 30
0.0
 11
487.4597206054
 21
403.0897555297
 31
0.0
  0
LINE
  5
143
330
1F
100
AcDbEntity
  8
SLD-0
  6
Continuous
 62
   179
370
    25
100
AcDbLine
 10
427.4597206054
 20
408.0897555297
 30
0.0
 11
427.4597206054
 21
403.0897555297
 31
0.0
  0
LINE
  5
144
330
1F
100
AcDbEntity
  8
SLD-0
  6
Continuous
 62
   179
370
    25
100
AcDbLine
 10
427.4597206054
 20
408.0897555297
 30
0.0
 11
397.4597206054
 21
408.0897555297
 31
0.0
  0
LINE
  5
145
330
1F
100
AcDbEntity
  8
SLD-0
  6
Continuous
 62
   179
370
    25
100
AcDbLine
 10
397.4597206054
 20
403.0897555297
 30
0.0
 11
397.4597206054
 21
408.0897555297
 31
0.0
  0
LINE
  5
146
330
1F
100
AcDbEntity
  8
SLD-0
  6
Continuous
 62
   179
370
    25
100
AcDbLine
 10
397.4597206054
 20
403.0897555297
 30
0.0
 11
392.4597206054
 21
403.0897555297
 31
0.0
  0
LINE
  5
147
330
1F
100
AcDbEntity
  8
SLD-0
  6
Continuous
 62
   179
370
    25
100
AcDbLine
 10
392.4597206054
 20
403.0897555297
 30
0.0
 11
392.4597206054
 21
293.0897555297
 31
0.0
  0
LINE
  5
148
330
1F
100
AcDbEntity
  8
SLD-0
  6
Continuous
 62
   179
370
    25
100
AcDbLine
 10
559.7487077998
 20
217.5341792782
 30
0.0
 11
539.7487077998
 21
217.5341792782
 31
0.0
  0
LINE
  5
149
330
1F
100
AcDbEntity
  8
SLD-0
  6
Continuous
 62
   179
370
    25
100
AcDbLine
 10
559.7487077998
 20
213.5341792782
 30
0.0
 11
559.7487077998
 21
217.5341792782
 31
0.0
  0
LINE
  5
14A
330
1F
100
AcDbEntity
  8
SLD-0
  6
Continuous
 62
   179
370
    25
100
AcDbLine
 10
539.7487077998
 20
213.5341792782
 30
0.0
 11
559.7487077998
 21
213.5341792782
 31
0.0
  0
LINE
  5
14B
330
1F
100
AcDbEntity
  8
SLD-0
  6
Continuous
 62
   179
370
    25
100
AcDbLine
 10
539.7487077998
 20
217.5341792782
 30
0.0
 11
539.7487077998
 21
213.5341792782
 31
0.0
  0
LINE
  5
14C
330
1F
100
AcDbEntity
  8
SLD-0
  6
Continuous
 62
   179
370
    25
100
AcDbLine
 10
494.7487077998
 20
233.5341792782
 30
0.0
 11
423.7487077998
 21
233.5341792782
 31
0.0
  0
LINE
  5
14D
330
1F
100
AcDbEntity
  8
SLD-0
  6
Continuous
 62
   179
370
    25
100
AcDbLine
 10
494.7487077998
 20
204.5341792782
 30
0.0
 11
494.7487077998
 21
233.5341792782
 31
0.0
  0
LINE
  5
14E
330
1F
100
AcDbEntity
  8
SLD-0
  6
Continuous
 62
   179
370
    25
100
AcDbLine
 10
423.7487077998
 20
204.5341792782
 30
0.0
 11
494.7487077998
 21
204.5341792782
 31
0.0
  0
LINE
  5
14F
330
1F
100
AcDbEntity
  8
SLD-0
  6
Continuous
 62
   179
370
    25
100
AcDbLine
 10
423.7487077998
 20
233.5341792782
 30
0.0
 11
423.7487077998
 21
204.5341792782
 31
0.0
  0
LINE
  5
150
330
1F
100
AcDbEntity
  8
SLD-0
  6
Continuous
 62
   179
370
    25
100
AcDbLine
 10
399.7487077998
 20
160.5341792782
 30
0.0
 11
394.7487077998
 21
160.5341792782
 31
0.0
  0
LINE
  5
151
330
1F
100
AcDbEntity
  8
SLD-0
  6
Continuous
 62
   179
370
    25
100
AcDbLine
 10
399.7487077998
 20
155.5341792782
 30
0.0
 11
399.7487077998
 21
160.5341792782
 31
0.0
  0
LINE
  5
152
330
1F
100
AcDbEntity
  8
SLD-0
  6
Continuous
 62
   179
370
    25
100
AcDbLine
 10
399.7487077998
 20
155.5341792782
 30
0.0
 11
429.7487077998
 21
155.5341792782
 31
0.0
  0
LINE
  5
153
330
1F
100
AcDbEntity
  8
SLD-0
  6
Continuous
 62
   179
370
    25
100
AcDbLine
 10
429.7487077998
 20
160.5341792782
 30
0.0
 11
429.7487077998
 21
155.5341792782
 31
0.0
  0
LINE
  5
154
330
1F
100
AcDbEntity
  8
SLD-0
  6
Continuous
 62
   179
370
    25
100
AcDbLine
 10
489.7487077998
 20
160.5341792782
 30
0.0
 11
429.7487077998
 21
160.5341792782
 31
0.0
  0
LINE
  5
155
330
1F
100
AcDbEntity
  8
SLD-0
  6
Continuous
 62
   179
370
    25
100
AcDbLine
 10
489.7487077998
 20
155.5341792782
 30
0.0
 11
489.7487077998
 21
160.5341792782
 31
0.0
  0
LINE
  5
156
330
1F
100
AcDbEntity
  8
SLD-0
  6
Continuous
 62
   179
370
    25
100
AcDbLine
 10
489.7487077998
 20
155.5341792782
 30
0.0
 11
519.7487077998
 21
155.5341792782
 31
0.0
  0
LINE
  5
157
330
1F
100
AcDbEntity
  8
SLD-0
  6
Continuous
 62
   179
370
    25
100
AcDbLine
 10
519.7487077998
 20
160.5341792782
 30
0.0
 11
519.7487077998
 21
155.5341792782
 31
0.0
  0
LINE
  5
158
330
1F
100
AcDbEntity
  8
SLD-0
  6
Continuous
 62
   179
370
    25
100
AcDbLine
 10
579.7487077998
 20
160.5341792782
 30
0.0
 11
519.7487077998
 21
160.5341792782
 31
0.0
  0
LINE
  5
159
330
1F
100
AcDbEntity
  8
SLD-0
  6
Continuous
 62
   179
370
    25
100
AcDbLine
 10
579.7487077998
 20
155.5341792782
 30
0.0
 11
579.7487077998
 21
160.5341792782
 31
0.0
  0
LINE
  5
15A
330
1F
100
AcDbEntity
  8
SLD-0
  6
Continuous
 62
   179
370
    25
100
AcDbLine
 10
579.7487077998
 20
155.5341792782
 30
0.0
 11
609.7487077998
 21
155.5341792782
 31
0.0
  0
LINE
  5
15B
330
1F
100
AcDbEntity
  8
SLD-0
  6
Continuous
 62
   179
370
    25
100
AcDbLine
 10
609.7487077998
 20
160.5341792782
 30
0.0
 11
609.7487077998
 21
155.5341792782
 31
0.0
  0
LINE
  5
15C
330
1F
100
AcDbEntity
  8
SLD-0
  6
Continuous
 62
   179
370
    25
100
AcDbLine
 10
669.7487077998
 20
160.5341792782
 30
0.0
 11
609.7487077998
 21
160.5341792782
 31
0.0
  0
LINE
  5
15D
330
1F
100
AcDbEntity
  8
SLD-0
  6
Continuous
 62
   179
370
    25
100
AcDbLine
 10
669.7487077998
 20
155.5341792782
 30
0.0
 11
669.7487077998
 21
160.5341792782
 31
0.0
  0
LINE
  5
15E
330
1F
100
AcDbEntity
  8
SLD-0
  6
Continuous
 62
   179
370
    25
100
AcDbLine
 10
669.7487077998
 20
155.5341792782
 30
0.0
 11
699.7487077998
 21
155.5341792782
 31
0.0
  0
LINE
  5
15F
330
1F
100
AcDbEntity
  8
SLD-0
  6
Continuous
 62
   179
370
    25
100
AcDbLine
 10
699.7487077998
 20
160.5341792782
 30
0.0
 11
699.7487077998
 21
155.5341792782
 31
0.0
  0
LINE
  5
160
330
1F
100
AcDbEntity
  8
SLD-0
  6
Continuous
 62
   179
370
    25
100
AcDbLine
 10
699.7487077998
 20
160.5341792782
 30
0.0
 11
704.7487077998
 21
160.5341792782
 31
0.0
  0
LINE
  5
161
330
1F
100
AcDbEntity
  8
SLD-0
  6
Continuous
 62
   179
370
    25
100
AcDbLine
 10
704.7487077998
 20
160.5341792782
 30
0.0
 11
704.7487077998
 21
270.5341792782
 31
0.0
  0
LINE
  5
162
330
1F
100
AcDbEntity
  8
SLD-0
  6
Continuous
 62
   179
370
    25
100
AcDbLine
 10
699.7487077998
 20
270.5341792782
 30
0.0
 11
704.7487077998
 21
270.5341792782
 31
0.0
  0
LINE
  5
163
330
1F
100
AcDbEntity
  8
SLD-0
  6
Continuous
 62
   179
370
    25
100
AcDbLine
 10
699.7487077998
 20
275.5341792782
 30
0.0
 11
699.7487077998
 21
270.5341792782
 31
0.0
  0
LINE
  5
164
330
1F
100
AcDbEntity
  8
SLD-0
  6
Continuous
 62
   179
370
    25
100
AcDbLine
 10
699.7487077998
 20
275.5341792782
 30
0.0
 11
669.7487077998
 21
275.5341792782
 31
0.0
  0
LINE
  5
165
330
1F
100
AcDbEntity
  8
SLD-0
  6
Continuous
 62
   179
370
    25
100
AcDbLine
 10
669.7487077998
 20
270.5341792782
 30
0.0
 11
669.7487077998
 21
275.5341792782
 31
0.0
  0
LINE
  5
166
330
1F
100
AcDbEntity
  8
SLD-0
  6
Continuous
 62
   179
370
    25
100
AcDbLine
 10
609.7487077998
 20
270.5341792782
 30
0.0
 11
669.7487077998
 21
270.5341792782
 31
0.0
  0
LINE
  5
167
330
1F
100
AcDbEntity
  8
SLD-0
  6
Continuous
 62
   179
370
    25
100
AcDbLine
 10
609.7487077998
 20
275.5341792782
 30
0.0
 11
609.7487077998
 21
270.5341792782
 31
0.0
  0
LINE
  5
168
330
1F
100
AcDbEntity
  8
SLD-0
  6
Continuous
 62
   179
370
    25
100
AcDbLine
 10
609.7487077998
 20
275.5341792782
 30
0.0
 11
579.7487077998
 21
275.5341792782
 31
0.0
  0
LINE
  5
169
330
1F
100
AcDbEntity
  8
SLD-0
  6
Continuous
 62
   179
370
    25
100
AcDbLine
 10
579.7487077998
 20
270.5341792782
 30
0.0
 11
579.7487077998
 21
275.5341792782
 31
0.0
  0
LINE
  5
16A
330
1F
100
AcDbEntity
  8
SLD-0
  6
Continuous
 62
   179
370
    25
100
AcDbLine
 10
519.7487077998
 20
270.5341792782
 30
0.0
 11
579.7487077998
 21
270.5341792782
 31
0.0
  0
LINE
  5
16B
330
1F
100
AcDbEntity
  8
SLD-0
  6
Continuous
 62
   179
370
    25
100
AcDbLine
 10
519.7487077998
 20
275.5341792782
 30
0.0
 11
519.7487077998
 21
270.5341792782
 31
0.0
  0
LINE
  5
16C
330
1F
100
AcDbEntity
  8
SLD-0
  6
Continuous
 62
   179
370
    25
100
AcDbLine
 10
519.7487077998
 20
275.5341792782
 30
0.0
 11
489.7487077998
 21
275.5341792782
 31
0.0
  0
LINE
  5
16D
330
1F
100
AcDbEntity
  8
SLD-0
  6
Continuous
 62
   179
370
    25
100
AcDbLine
 10
489.7487077998
 20
270.5341792782
 30
0.0
 11
489.7487077998
 21
275.5341792782
 31
0.0
  0
LINE
  5
16E
330
1F
100
AcDbEntity
  8
SLD-0
  6
Continuous
 62
   179
370
    25
100
AcDbLine
 10
429.7487077998
 20
270.5341792782
 30
0.0
 11
489.7487077998
 21
270.5341792782
 31
0.0
  0
LINE
  5
16F
330
1F
100
AcDbEntity
  8
SLD-0
  6
Continuous
 62
   179
370
    25
100
AcDbLine
 10
429.7487077998
 20
275.5341792782
 30
0.0
 11
429.7487077998
 21
270.5341792782
 31
0.0
  0
LINE
  5
170
330
1F
100
AcDbEntity
  8
SLD-0
  6
Continuous
 62
   179
370
    25
100
AcDbLine
 10
429.7487077998
 20
275.5341792782
 30
0.0
 11
399.7487077998
 21
275.5341792782
 31
0.0
  0
LINE
  5
171
330
1F
100
AcDbEntity
  8
SLD-0
  6
Continuous
 62
   179
370
    25
100
AcDbLine
 10
399.7487077998
 20
270.5341792782
 30
0.0
 11
399.7487077998
 21
275.5341792782
 31
0.0
  0
LINE
  5
172
330
1F
100
AcDbEntity
  8
SLD-0
  6
Continuous
 62
   179
370
    25
100
AcDbLine
 10
399.7487077998
 20
270.5341792782
 30
0.0
 11
394.7487077998
 21
270.5341792782
 31
0.0
  0
LINE
  5
173
330
1F
100
AcDbEntity
  8
SLD-0
  6
Continuous
 62
   179
370
    25
100
AcDbLine
 10
394.7487077998
 20
270.5341792782
 30
0.0
 11
394.7487077998
 21
160.5341792782
 31
0.0
  0
CIRCLE
  5
174
330
1F
100
AcDbEntity
  8
SLD-0
  6
Continuous
 62
   179
370
    25
100
AcDbCircle
 10
266.4401629802
 20
85.8774854482
 30
0.0
 40
18.00000000000005
  0
CIRCLE
  5
175
330
1F
100
AcDbEntity
  8
SLD-0
  6
Continuous
 62
   179
370
    25
100
AcDbCircle
 10
390.8492326173
 20
491.9546876313
 30
0.0
 40
10.00000000000003
  0
CIRCLE
  5
176
330
1F
100
AcDbEntity
  8
SLD-0
  6
Continuous
 62
   179
370
    25
100
AcDbCircle
 10
674.9075380762
 20
215.5341792782
 30
0.0
 40
3.99999999999999
  0
CIRCLE
  5
177
330
1F
100
AcDbEntity
  8
SLD-0
  6
Continuous
 62
   179
370
    25
100
AcDbCircle
 10
619.7487077998
 20
215.5341792782
 30
0.0
 40
15.00000000000004
  0
DIMENSION
  5
178
330
1F
100
AcDbEntity
  8
SLD-0
100
AcDbDimension
  2
_D
 10
500.9078230501
 20
575.9587194412
 30
0.0
 11
500.9078230501
 21
523.7641676368
 31
0.0
 70
   160
  1
<>
 71
     2
 42
-1.0
  3
SLDDIMSTYLE0
100
AcDbAlignedDimension
 13
445.0921769499
 23
465.9587194412
 33
0.0
 14
445.0921769499
 24
575.9587194412
 34
0.0
 50
90.0
100
AcDbRotatedDimension
  0
DIMENSION
  5
184
330
1F
100
AcDbEntity
  8
SLD-0
100
AcDbDimension
  2
_D_1
 10
371.1267753201
 20
225.8774854482
 30
0.0
 11
371.1267753201
 21
116.7877299185
 31
0.0
 70
   160
  1
<>
 71
     2
 42
-1.0
  3
SLDDIMSTYLE0
100
AcDbAlignedDimension
 13
346.4401629802
 23
5.8774854482
 33
0.0
 14
346.4401629802
 24
225.8774854482
 34
0.0
 50
90.0
100
AcDbRotatedDimension
  0
DIMENSION
  5
18E
330
1F
100
AcDbEntity
  8
SLD-0
100
AcDbDimension
  2
_D_2
 10
392.4597206054
 20
429.9550407451
 30
0.0
 11
518.5411175786
 21
429.9550407451
 31
0.0
 70
   160
  1
<>
 71
     2
 42
-1.0
  3
SLDDIMSTYLE0
100
AcDbAlignedDimension
 13
702.4597206054
 23
403.0897555297
 33
0.0
 14
392.4597206054
 24
403.0897555297
 34
0.0
100
AcDbRotatedDimension
  0
DIMENSION
  5
198
330
1F
100
AcDbEntity
  8
SLD-0
100
AcDbDimension
  2
_D_3
 10
494.7487077998
 20
181.6782537835
 30
0.0
 11
462.1145750873
 21
181.6782537835
 31
0.0
 70
   160
  1
<>
 71
     2
 42
-1.0
  3
SLDDIMSTYLE0
100
AcDbAlignedDimension
 13
423.7487077998
 23
204.5341792782
 33
0.0
 14
494.7487077998
 24
204.5341792782
 34
0.0
100
AcDbRotatedDimension
  0
DIMENSION
  5
1A2
330
1F
100
AcDbEntity
  8
SLD-0
100
AcDbDimension
  2
_D_4
 10
609.142106082
 20
204.9275775604
 30
0.0
 11
648.4947480675
 21
244.280219546
 31
0.0
 70
   163
  1
<>
 71
     1
 42
-1.0
  3
SLDDIMSTYLE1
100
AcDbDiametricDimension
 15
630.3553095176
 25
226.140780996
 35
0.0
 40
0.0
  0
DIMENSION
  5
1AF
330
1F
100
AcDbEntity
  8
SLD-0
100
AcDbDimension
  2
_D_5
 10
609.7487077998
 20
123.8410477299
 30
0.0
 11
591.1902910361
 21
123.8410477299
 31
0.0
 70
   160
  1
<>
 71
     2
 42
-1.0
  3
SLDDIMSTYLE0
100
AcDbAlignedDimension
 13
579.7487077998
 23
155.5341792782
 33
0.0
 14
609.7487077998
 24
155.5341792782
 34
0.0
100
AcDbRotatedDimension
  0
DIMENSION
  5
1B9
330
1F
100
AcDbEntity
  8
SLD-0
100
AcDbDimension
  2
_D_6
 10
519.7487077998
 20
123.8410477299
 30
0.0
 11
543.2277299185
 21
123.8410477299
 31
0.0
 70
   160
  1
<>
 71
     2
 42
-1.0
  3
SLDDIMSTYLE0
100
AcDbAlignedDimension
 13
579.7487077998
 23
160.5341792782
 33
0.0
 14
519.7487077998
 24
160.5341792782
 34
0.0
100
AcDbRotatedDimension
  0
ENDSEC
  0
SECTION
  2
OBJECTS
  0
DICTIONARY
  5
C
330
0
100
AcDbDictionary
281
     1
  3
ACAD_GROUP
350
D
  3
ACAD_LAYOUT
350
1A
  3
ACAD_MLINESTYLE
350
17
  3
ACAD_PLOTSETTINGS
350
19
  3
ACAD_PLOTSTYLENAME
350
E
  3
ACAD_SCALELIST
350
47
  0
DICTIONARY
  5
D
102
{ACAD_REACTORS
330
C
102
}
330
C
100
AcDbDictionary
281
     1
  0
DICTIONARY
  5
1A
102
{ACAD_REACTORS
330
C
102
}
330
C
100
AcDbDictionary
281
     1
  3
Layout1
350
1E
  3
Layout2
350
26
  3
Model
350
22
  0
DICTIONARY
  5
17
102
{ACAD_REACTORS
330
C
102
}
330
C
100
AcDbDictionary
281
     1
  3
Standard
350
18
  0
DICTIONARY
  5
19
102
{ACAD_REACTORS
330
C
102
}
330
C
100
AcDbDictionary
281
     1
  0
ACDBDICTIONARYWDFLT
  5
E
102
{ACAD_REACTORS
330
C
102
}
330
C
100
AcDbDictionary
281
     1
  3
Normal
350
F
100
AcDbDictionaryWithDefault
340
F
  0
DICTIONARY
  5
47
102
{ACAD_REACTORS
330
C
102
}
330
C
100
AcDbDictionary
281
     1
  3
A0
350
48
  3
A1
350
49
  3
A2
350
4A
  3
A3
350
4B
  3
A4
350
4C
  3
A5
350
4D
  3
A6
350
4E
  3
A7
350
4F
  3
A8
350
50
  3
A9
350
51
  3
B0
350
52
  3
B1
350
53
  3
B2
350
54
  3
B3
350
55
  3
B4
350
56
  3
B5
350
57
  3
B6
350
58
  3
B7
350
59
  3
B8
350
5A
  3
B9
350
5B
  3
C0
350
5C
  3
C1
350
5D
  3
C2
350
5E
  3
C3
350
5F
  3
C4
350
60
  3
C5
350
61
  3
C6
350
62
  3
C7
350
63
  3
C8
350
64
  3
C9
350
65
  3
D0
350
66
  3
D1
350
67
  3
D2
350
68
  0
LAYOUT
  5
1E
102
{ACAD_REACTORS
330
1A
102
}
330
1A
100
AcDbPlotSettings
  1

  2
none_device
  4

  6

 40
0.0
 41
0.0
 42
0.0
 43
0.0
 44
0.0
 45
0.0
 46
0.0
 47
0.0
 48
0.0
 49
0.0
140
0.0
141
0.0
142
1.0
143
1.0
 70
   688
 72
     1
 73
     0
 74
     5
  7

 75
    16
147
1.0
148
0.0
149
0.0
100
AcDbLayout
  1
Layout1
 70
     1
 71
     1
 10
0.0
 20
0.0
 11
420.0
 21
297.0
 12
0.0
 22
0.0
 32
0.0
 14
1.0000000000E+20
 24
1.0000000000E+20
 34
1.0000000000E+20
 15
-1.0000000000E+20
 25
-1.0000000000E+20
 35
-1.0000000000E+20
146
0.0
 13
0.0
 23
0.0
 33
0.0
 16
1.0
 26
0.0
 36
0.0
 17
0.0
 27
1.0
 37
0.0
 76
     0
330
1B
  0
LAYOUT
  5
26
102
{ACAD_REACTORS
330
1A
102
}
330
1A
100
AcDbPlotSettings
  1

  2
none_device
  4

  6

 40
0.0
 41
0.0
 42
0.0
 43
0.0
 44
0.0
 45
0.0
 46
0.0
 47
0.0
 48
0.0
 49
0.0
140
0.0
141
0.0
142
1.0
143
1.0
 70
   688
 72
     1
 73
     0
 74
     5
  7

 75
    16
147
1.0
148
0.0
149
0.0
100
AcDbLayout
  1
Layout2
 70
     1
 71
     2
 10
0.0
 20
0.0
 11
0.0
 21
0.0
 12
0.0
 22
0.0
 32
0.0
 14
0.0
 24
0.0
 34
0.0
 15
0.0
 25
0.0
 35
0.0
146
0.0
 13
0.0
 23
0.0
 33
0.0
 16
1.0
 26
0.0
 36
0.0
 17
0.0
 27
1.0
 37
0.0
 76
     0
330
23
  0
LAYOUT
  5
22
102
{ACAD_REACTORS
330
1A
102
}
330
1A
100
AcDbPlotSettings
  1

  2
none_device
  4
Letter_(8.50_x_11.00_Inches)
  6

 40
6.35
 41
6.35
 42
6.35000508
 43
6.35000508
 44
215.9
 45
279.4
 46
0.0
 47
0.0
 48
0.0
 49
0.0
140
0.0
141
0.0
142
1.0
143
1.0
 70
  1712
 72
     1
 73
     0
 74
     0
  7

 75
     0
147
1.0
148
0.0
149
0.0
100
AcDbLayout
  1
Model
 70
     1
 71
     0
 10
0.0
 20
0.0
 11
841.0
 21
594.0
 12
0.0
 22
0.0
 32
0.0
 14
0.0
 24
0.0
 34
0.0
 15
841.0
 25
594.0
 35
0.0
146
0.0
 13
0.0
 23
0.0
 33
0.0
 16
1.0
 26
0.0
 36
0.0
 17
0.0
 27
1.0
 37
0.0
 76
     0
330
1F
331
29
  0
MLINESTYLE
  5
18
102
{ACAD_REACTORS
330
17
102
}
330
17
100
AcDbMlineStyle
  2
Standard
 70
     0
  3

 62
   256
 51
90.0
 52
90.0
 71
     2
 49
0.5
 62
   256
  6
BYLAYER
 49
-0.5
 62
   256
  6
BYLAYER
  0
ACDBPLACEHOLDER
  5
F
102
{ACAD_REACTORS
330
E
102
}
330
E
  0
SCALE
  5
48
102
{ACAD_REACTORS
330
47
102
}
330
47
100
AcDbScale
 70
     0
300
1:1
140
1.0
141
1.0
290
     1
  0
SCALE
  5
49
102
{ACAD_REACTORS
330
47
102
}
330
47
100
AcDbScale
 70
     0
300
1:2
140
1.0
141
2.0
290
     0
  0
SCALE
  5
4A
102
{ACAD_REACTORS
330
47
102
}
330
47
100
AcDbScale
 70
     0
300
1:4
140
1.0
141
4.0
290
     0
  0
SCALE
  5
4B
102
{ACAD_REACTORS
330
47
102
}
330
47
100
AcDbScale
 70
     0
300
1:5
140
1.0
141
5.0
290
     0
  0
SCALE
  5
4C
102
{ACAD_REACTORS
330
47
102
}
330
47
100
AcDbScale
 70
     0
300
1:8
140
1.0
141
8.0
290
     0
  0
SCALE
  5
4D
102
{ACAD_REACTORS
330
47
102
}
330
47
100
AcDbScale
 70
     0
300
1:10
140
1.0
141
10.0
290
     0
  0
SCALE
  5
4E
102
{ACAD_REACTORS
330
47
102
}
330
47
100
AcDbScale
 70
     0
300
1:16
140
1.0
141
16.0
290
     0
  0
SCALE
  5
4F
102
{ACAD_REACTORS
330
47
102
}
330
47
100
AcDbScale
 70
     0
300
1:20
140
1.0
141
20.0
290
     0
  0
SCALE
  5
50
102
{ACAD_REACTORS
330
47
102
}
330
47
100
AcDbScale
 70
     0
300
1:30
140
1.0
141
30.0
290
     0
  0
SCALE
  5
51
102
{ACAD_REACTORS
330
47
102
}
330
47
100
AcDbScale
 70
     0
300
1:40
140
1.0
141
40.0
290
     0
  0
SCALE
  5
52
102
{ACAD_REACTORS
330
47
102
}
330
47
100
AcDbScale
 70
     0
300
1:50
140
1.0
141
50.0
290
     0
  0
SCALE
  5
53
102
{ACAD_REACTORS
330
47
102
}
330
47
100
AcDbScale
 70
     0
300
1:100
140
1.0
141
100.0
290
     0
  0
SCALE
  5
54
102
{ACAD_REACTORS
330
47
102
}
330
47
100
AcDbScale
 70
     0
300
2:1
140
2.0
141
1.0
290
     0
  0
SCALE
  5
55
102
{ACAD_REACTORS
330
47
102
}
330
47
100
AcDbScale
 70
     0
300
4:1
140
4.0
141
1.0
290
     0
  0
SCALE
  5
56
102
{ACAD_REACTORS
330
47
102
}
330
47
100
AcDbScale
 70
     0
300
8:1
140
8.0
141
1.0
290
     0
  0
SCALE
  5
57
102
{ACAD_REACTORS
330
47
102
}
330
47
100
AcDbScale
 70
     0
300
10:1
140
10.0
141
1.0
290
     0
  0
SCALE
  5
58
102
{ACAD_REACTORS
330
47
102
}
330
47
100
AcDbScale
 70
     0
300
100:1
140
100.0
141
1.0
290
     0
  0
SCALE
  5
59
102
{ACAD_REACTORS
330
47
102
}
330
47
100
AcDbScale
 70
     0
300
1/128" = 1'-0"
140
0.0078125
141
12.0
290
     0
  0
SCALE
  5
5A
102
{ACAD_REACTORS
330
47
102
}
330
47
100
AcDbScale
 70
     0
300
1/64" = 1'-0"
140
0.015625
141
12.0
290
     0
  0
SCALE
  5
5B
102
{ACAD_REACTORS
330
47
102
}
330
47
100
AcDbScale
 70
     0
300
1/32" = 1'-0"
140
0.03125
141
12.0
290
     0
  0
SCALE
  5
5C
102
{ACAD_REACTORS
330
47
102
}
330
47
100
AcDbScale
 70
     0
300
1/16" = 1'-0"
140
0.0625
141
12.0
290
     0
  0
SCALE
  5
5D
102
{ACAD_REACTORS
330
47
102
}
330
47
100
AcDbScale
 70
     0
300
3/32" = 1'-0"
140
0.09375
141
12.0
290
     0
  0
SCALE
  5
5E
102
{ACAD_REACTORS
330
47
102
}
330
47
100
AcDbScale
 70
     0
300
1/8" = 1'-0"
140
0.125
141
12.0
290
     0
  0
SCALE
  5
5F
102
{ACAD_REACTORS
330
47
102
}
330
47
100
AcDbScale
 70
     0
300
3/16" = 1'-0"
140
0.1875
141
12.0
290
     0
  0
SCALE
  5
60
102
{ACAD_REACTORS
330
47
102
}
330
47
100
AcDbScale
 70
     0
300
1/4" = 1'-0"
140
0.25
141
12.0
290
     0
  0
SCALE
  5
61
102
{ACAD_REACTORS
330
47
102
}
330
47
100
AcDbScale
 70
     0
300
3/8" = 1'-0"
140
0.375
141
12.0
290
     0
  0
SCALE
  5
62
102
{ACAD_REACTORS
330
47
102
}
330
47
100
AcDbScale
 70
     0
300
1/2" = 1'-0"
140
0.5
141
12.0
290
     0
  0
SCALE
  5
63
102
{ACAD_REACTORS
330
47
102
}
330
47
100
AcDbScale
 70
     0
300
3/4" = 1'-0"
140
0.75
141
12.0
290
     0
  0
SCALE
  5
64
102
{ACAD_REACTORS
330
47
102
}
330
47
100
AcDbScale
 70
     0
300
1" = 1'-0"
140
1.0
141
12.0
290
     0
  0
SCALE
  5
65
102
{ACAD_REACTORS
330
47
102
}
330
47
100
AcDbScale
 70
     0
300
1-1/2" = 1'-0"
140
1.5
141
12.0
290
     0
  0
SCALE
  5
66
102
{ACAD_REACTORS
330
47
102
}
330
47
100
AcDbScale
 70
     0
300
3" = 1'-0"
140
3.0
141
12.0
290
     0
  0
SCALE
  5
67
102
{ACAD_REACTORS
330
47
102
}
330
47
100
AcDbScale
 70
     0
300
6" = 1'-0"
140
6.0
141
12.0
290
     0
  0
SCALE
  5
68
102
{ACAD_REACTORS
330
47
102
}
330
47
100
AcDbScale
 70
     0
300
1'-0" = 1'-0"
140
12.0
141
12.0
290
     0
  0
ENDSEC
  0
EOF
